PowerhouseFilar-Bold.ufo
<glyph name="numbersign" format="2">
  <advance width="671"/>
  <unicode hex="0023"/>
  <outline>
    <contour>
      <point x="359" y="700" type="line"/>
      <point x="234" y="700" type="line"/>
      <point x="68" y="0" type="line"/>
      <point x="193" y="0" type="line"/>
    </contour>
    <contour>
      <point x="655" y="539" type="line"/>
      <point x="70" y="539" type="line"/>
      <point x="70" y="425" type="line"/>
      <point x="655" y="425" type="line"/>
    </contour>
    <contour>
      <point x="597" y="700" type="line"/>
      <point x="472" y="700" type="line"/>
      <point x="306" y="0" type="line"/>
      <point x="431" y="0" type="line"/>
    </contour>
    <contour>
      <point x="604" y="303" type="line"/>
      <point x="19" y="303" type="line"/>
      <point x="19" y="189" type="line"/>
      <point x="604" y="189" type="line"/>
    </contour>
  </outline>
</glyph>
<glyph name="asterisk" format="2">
  <advance width="430"/>
  <unicode hex="002A"/>
  <outline>
    <contour>
      <point x="52" y="350" type="line"/>
      <point x="131" y="292" type="line"/>
      <point x="215" y="407" type="line"/>
      <point x="299" y="292" type="line"/>
      <point x="378" y="350" type="line"/>
      <point x="293" y="468" type="line"/>
      <point x="429" y="513" type="line"/>
      <point x="399" y="606" type="line"/>
      <point x="264" y="563" type="line"/>
      <point x="264" y="700" type="line"/>
      <point x="166" y="700" type="line"/>
      <point x="166" y="563" type="line"/>
      <point x="31" y="606" type="line"/>
      <point x="1" y="513" type="line"/>
      <point x="137" y="468" type="line"/>
    </contour>
  </outline>
</glyph>
<glyph name="plus" format="2">
  <advance width="576"/>
  <unicode hex="002B"/>
  <outline>
    <contour>
      <point x="532" y="280" type="line"/>
      <point x="532" y="400" type="line"/>
      <point x="44" y="400" type="line"/>
      <point x="44" y="280" type="line"/>
    </contour>
    <contour>
      <point x="351" y="594" type="line"/>
      <point x="225" y="594" type="line"/>
      <point x="225" y="86" type="line"/>
      <point x="351" y="86" type="line"/>
    </contour>
  </outline>
</glyph>
<glyph name="slash" format="2">
  <advance width="453"/>
  <unicode hex="002F"/>
  <outline>
    <contour>
      <point x="323" y="745" type="line"/>
      <point x="-45" y="-113" type="line"/>
      <point x="105" y="-113" type="line"/>
      <point x="473" y="745" type="line"/>
    </contour>
  </outline>
</glyph>
<glyph name="one" format="2">
  <advance width="427"/>
  <unicode hex="0031"/>
  <outline>
    <contour>
      <point x="192" y="700" type="line"/>
      <point x="192" y="589"/>
      <point x="140" y="555"/>
      <point x="18" y="555" type="curve"/>
      <point x="18" y="450" type="line"/>
      <point x="264" y="450" type="line"/>
      <point x="181" y="540" type="line"/>
      <point x="181" y="0" type="line"/>
      <point x="324" y="0" type="line"/>
      <point x="324" y="700" type="line"/>
    </contour>
    <contour>
      <point x="181" y="0" type="line"/>
      <point x="324" y="0" type="line"/>
      <point x="324" y="120" type="line"/>
      <point x="181" y="120" type="line"/>
    </contour>
  </outline>
</glyph>
<glyph name="eight" format="2">
  <advance width="572"/>
  <unicode hex="0038"/>
  <outline>
    <contour>
      <point x="286" y="424" type="curve" smooth="yes"/>
      <point x="224" y="424"/>
      <point x="181" y="460"/>
      <point x="181" y="513" type="curve" smooth="yes"/>
      <point x="181" y="566"/>
      <point x="224" y="602"/>
      <point x="286" y="602" type="curve" smooth="yes"/>
      <point x="348" y="602"/>
      <point x="391" y="566"/>
      <point x="391" y="513" type="curve" smooth="yes"/>
      <point x="391" y="460"/>
      <point x="348" y="424"/>
    </contour>
    <contour>
      <point x="385" y="366" type="line"/>
      <point x="459" y="379"/>
      <point x="530" y="426"/>
      <point x="530" y="519" type="curve" smooth="yes"/>
      <point x="530" y="630"/>
      <point x="430" y="712"/>
      <point x="286" y="712" type="curve" smooth="yes"/>
      <point x="142" y="712"/>
      <point x="42" y="630"/>
      <point x="42" y="519" type="curve" smooth="yes"/>
      <point x="42" y="426"/>
      <point x="113" y="379"/>
      <point x="187" y="366" type="curve"/>
      <point x="187" y="384" type="line"/>
      <point x="98" y="366"/>
      <point x="23" y="309"/>
      <point x="23" y="204" type="curve" smooth="yes"/>
      <point x="23" y="82"/>
      <point x="126" y="-12"/>
      <point x="286" y="-12" type="curve" smooth="yes"/>
      <point x="446" y="-12"/>
      <point x="549" y="82"/>
      <point x="549" y="204" type="curve" smooth="yes"/>
      <point x="549" y="309"/>
      <point x="474" y="366"/>
      <point x="385" y="384" type="curve"/>
    </contour>
    <contour>
      <point x="286" y="319" type="curve" smooth="yes"/>
      <point x="357" y="319"/>
      <point x="406" y="274"/>
      <point x="406" y="210" type="curve" smooth="yes"/>
      <point x="406" y="146"/>
      <point x="357" y="100"/>
      <point x="286" y="100" type="curve" smooth="yes"/>
      <point x="215" y="100"/>
      <point x="166" y="146"/>
      <point x="166" y="210" type="curve" smooth="yes"/>
      <point x="166" y="274"/>
      <point x="215" y="319"/>
    </contour>
  </outline>
</glyph>
<glyph name="less" format="2">
  <advance width="576"/>
  <unicode hex="003C"/>
  <outline>
    <contour>
      <point x="44" y="402" type="line"/>
      <point x="44" y="279" type="line"/>
      <point x="532" y="55" type="line"/>
      <point x="532" y="187" type="line"/>
      <point x="110" y="380" type="line"/>
      <point x="110" y="301" type="line"/>
      <point x="532" y="494" type="line"/>
      <point x="532" y="626" type="line"/>
    </contour>
  </outline>
</glyph>
<glyph name="equal" format="2">
  <advance width="576"/>
  <unicode hex="003D"/>
  <outline>
    <contour>
      <point x="532" y="392" type="line"/>
      <point x="532" y="512" type="line"/>
      <point x="44" y="512" type="line"/>
      <point x="44" y="392" type="line"/>
    </contour>
    <contour>
      <point x="532" y="168" type="line"/>
      <point x="532" y="288" type="line"/>
      <point x="44" y="288" type="line"/>
      <point x="44" y="168" type="line"/>
    </contour>
  </outline>
</glyph>
<glyph name="at" format="2">
  <advance width="862"/>
  <unicode hex="0040"/>
  <outline>
    <contour>
      <point x="37" y="221" type="curve" smooth="yes"/>
      <point x="37" y="4"/>
      <point x="174" y="-140"/>
      <point x="416" y="-140" type="curve" smooth="yes"/>
      <point x="508" y="-140"/>
      <point x="604" y="-116"/>
      <point x="678" y="-70" type="curve"/>
      <point x="642" y="11" type="line"/>
      <point x="578" y="-27"/>
      <point x="502" y="-49"/>
      <point x="416" y="-49" type="curve" smooth="yes"/>
      <point x="229" y="-49"/>
      <point x="132" y="58"/>
      <point x="132" y="221" type="curve" smooth="yes"/>
      <point x="132" y="420"/>
      <point x="276" y="557"/>
      <point x="468" y="557" type="curve" smooth="yes"/>
      <point x="600" y="557"/>
      <point x="730" y="494"/>
      <point x="730" y="306" type="curve" smooth="yes"/>
      <point x="730" y="201"/>
      <point x="679" y="146"/>
      <point x="630" y="146" type="curve" smooth="yes"/>
      <point x="606" y="146"/>
      <point x="586" y="158"/>
      <point x="590" y="199" type="curve" smooth="yes"/>
      <point x="617" y="451" type="line"/>
      <point x="513" y="451" type="line"/>
      <point x="509" y="410" type="line"/>
      <point x="489" y="439"/>
      <point x="454" y="457"/>
      <point x="410" y="457" type="curve" smooth="yes"/>
      <point x="310" y="457"/>
      <point x="227" y="364"/>
      <point x="227" y="230" type="curve" smooth="yes"/>
      <point x="227" y="118"/>
      <point x="295" y="52"/>
      <point x="383" y="52" type="curve" smooth="yes"/>
      <point x="430" y="52"/>
      <point x="467" y="71"/>
      <point x="494" y="109" type="curve"/>
      <point x="512" y="71"/>
      <point x="553" y="52"/>
      <point x="605" y="52" type="curve" smooth="yes"/>
      <point x="718" y="52"/>
      <point x="825" y="140"/>
      <point x="825" y="306" type="curve" smooth="yes"/>
      <point x="825" y="547"/>
      <point x="652" y="646"/>
      <point x="468" y="646" type="curve" smooth="yes"/>
      <point x="230" y="646"/>
      <point x="37" y="476"/>
    </contour>
    <contour>
      <point x="496" y="273" type="curve" smooth="yes"/>
      <point x="496" y="199"/>
      <point x="463" y="142"/>
      <point x="405" y="142" type="curve" smooth="yes"/>
      <point x="360" y="142"/>
      <point x="334" y="176"/>
      <point x="334" y="237" type="curve" smooth="yes"/>
      <point x="334" y="311"/>
      <point x="366" y="367"/>
      <point x="424" y="367" type="curve" smooth="yes"/>
      <point x="469" y="367"/>
      <point x="496" y="334"/>
    </contour>
  </outline>
</glyph>
<glyph name="A" format="2">
  <advance width="670"/>
  <unicode hex="0041"/>
  <outline>
    <contour>
      <point x="259" y="700" type="line"/>
      <point x="-2" y="0" type="line"/>
      <point x="144" y="0" type="line"/>
      <point x="378" y="644" type="line"/>
      <point x="295" y="644" type="line"/>
      <point x="525" y="0" type="line"/>
      <point x="672" y="0" type="line"/>
      <point x="415" y="700" type="line"/>
    </contour>
    <contour>
      <point x="160" y="272" type="line"/>
      <point x="160" y="150" type="line"/>
      <point x="509" y="150" type="line"/>
      <point x="509" y="272" type="line"/>
    </contour>
  </outline>
</glyph>
<glyph name="G" format="2">
  <advance width="789"/>
  <unicode hex="0047"/>
  <guideline x="399" y="700" angle="90" name="center" identifier="3Ta8E1ingc"/>
  <outline>
    <contour>
      <point x="395" y="712" type="curve" smooth="yes"/>
      <point x="189" y="712"/>
      <point x="38" y="562"/>
      <point x="38" y="350" type="curve" smooth="yes"/>
      <point x="38" y="138"/>
      <point x="185" y="-12"/>
      <point x="377" y="-12" type="curve" smooth="yes"/>
      <point x="498" y="-12"/>
      <point x="597" y="50"/>
      <point x="629" y="144" type="curve"/>
      <point x="590" y="144" type="line"/>
      <point x="590" y="0" type="line"/>
      <point x="712" y="0" type="line"/>
      <point x="712" y="382" type="line"/>
      <point x="424" y="382" type="line"/>
      <point x="424" y="268" type="line"/>
      <point x="633" y="268" type="line"/>
      <point x="591" y="311" type="line"/>
      <point x="591" y="290" type="line" smooth="yes"/>
      <point x="591" y="179"/>
      <point x="504" y="115"/>
      <point x="398" y="115" type="curve" smooth="yes"/>
      <point x="279" y="115"/>
      <point x="193" y="203"/>
      <point x="193" y="350" type="curve" smooth="yes"/>
      <point x="193" y="497"/>
      <point x="278" y="585"/>
      <point x="397" y="585" type="curve" smooth="yes"/>
      <point x="479" y="585"/>
      <point x="542" y="544"/>
      <point x="569" y="468" type="curve"/>
      <point x="699" y="510" type="line"/>
      <point x="661" y="620"/>
      <point x="556" y="712"/>
    </contour>
  </outline>
</glyph>
<glyph name="P" format="2">
  <advance width="650"/>
  <unicode hex="0050"/>
  <guideline x="334" y="700" angle="90" name="center" identifier="DliRjF6wWD"/>
  <outline>
    <contour>
      <point x="67" y="700" type="line"/>
      <point x="67" y="0" type="line"/>
      <point x="217" y="0" type="line"/>
      <point x="217" y="700" type="line"/>
    </contour>
    <contour>
      <point x="376" y="577" type="line" smooth="yes"/>
      <point x="442.0" y="577.0"/>
      <point x="477" y="546"/>
      <point x="477" y="492" type="curve" smooth="yes"/>
      <point x="477" y="438"/>
      <point x="442.0" y="407.0"/>
      <point x="376" y="407" type="curve" smooth="yes"/>
      <point x="140" y="407" type="line"/>
      <point x="140" y="284" type="line"/>
      <point x="391" y="284" type="line" smooth="yes"/>
      <point x="563.0" y="284.0"/>
      <point x="629" y="372"/>
      <point x="629" y="492" type="curve" smooth="yes"/>
      <point x="629" y="612"/>
      <point x="563.0" y="700.0"/>
      <point x="391" y="700" type="curve" smooth="yes"/>
      <point x="140" y="700" type="line"/>
      <point x="140" y="577" type="line"/>
    </contour>
  </outline>
</glyph>
<glyph name="Q" format="2">
  <advance width="786"/>
  <unicode hex="0051"/>
  <outline>
    <contour>
      <point x="325" y="-23" type="line" smooth="yes"/>
      <point x="325" y="-126"/>
      <point x="394" y="-186"/>
      <point x="521" y="-186" type="curve" smooth="yes"/>
      <point x="552" y="-186"/>
      <point x="602" y="-183"/>
      <point x="636" y="-177" type="curve"/>
      <point x="636" y="-66" type="line"/>
      <point x="612" y="-69"/>
      <point x="587" y="-71"/>
      <point x="566" y="-71" type="curve" smooth="yes"/>
      <point x="493.0" y="-71"/>
      <point x="478" y="-46"/>
      <point x="478" y="-17" type="curve" smooth="yes"/>
      <point x="478" y="22" type="line"/>
      <point x="325" y="22" type="line"/>
    </contour>
    <contour>
      <point x="593" y="350" type="curve" smooth="yes"/>
      <point x="593" y="204"/>
      <point x="510" y="114"/>
      <point x="393" y="114" type="curve" smooth="yes"/>
      <point x="276" y="114"/>
      <point x="193" y="204"/>
      <point x="193" y="350" type="curve" smooth="yes"/>
      <point x="193" y="496"/>
      <point x="276" y="586"/>
      <point x="393" y="586" type="curve" smooth="yes"/>
      <point x="510" y="586"/>
      <point x="593" y="496"/>
    </contour>
    <contour>
      <point x="38" y="350" type="curve" smooth="yes"/>
      <point x="38" y="138"/>
      <point x="187" y="-12"/>
      <point x="393" y="-12" type="curve" smooth="yes"/>
      <point x="599" y="-12"/>
      <point x="748" y="138"/>
      <point x="748" y="350" type="curve" smooth="yes"/>
      <point x="748" y="562"/>
      <point x="599" y="712"/>
      <point x="393" y="712" type="curve" smooth="yes"/>
      <point x="187" y="712"/>
      <point x="38" y="562"/>
    </contour>
  </outline>
</glyph>
<glyph name="T" format="2">
  <advance width="675"/>
  <unicode hex="0054"/>
  <outline>
    <contour>
      <point x="18" y="700" type="line"/>
      <point x="18" y="576" type="line"/>
      <point x="657" y="576" type="line"/>
      <point x="657" y="700" type="line"/>
    </contour>
    <contour>
      <point x="262" y="651" type="line"/>
      <point x="262" y="0" type="line"/>
      <point x="413" y="0" type="line"/>
      <point x="413" y="651" type="line"/>
    </contour>
  </outline>
</glyph>
<glyph name="U" format="2">
  <advance width="736"/>
  <unicode hex="0055"/>
  <outline>
    <contour>
      <point x="672" y="700" type="line"/>
      <point x="527" y="700" type="line"/>
      <point x="527" y="277" type="line" smooth="yes"/>
      <point x="527" y="181"/>
      <point x="468" y="117"/>
      <point x="369" y="117" type="curve" smooth="yes"/>
      <point x="270" y="117"/>
      <point x="210" y="181"/>
      <point x="210" y="277" type="curve" smooth="yes"/>
      <point x="210" y="700" type="line"/>
      <point x="64" y="700" type="line"/>
      <point x="64" y="269" type="line" smooth="yes"/>
      <point x="64" y="100"/>
      <point x="175" y="-12"/>
      <point x="369" y="-12" type="curve" smooth="yes"/>
      <point x="563" y="-12"/>
      <point x="672" y="100"/>
      <point x="672" y="269" type="curve" smooth="yes"/>
    </contour>
  </outline>
</glyph>
<glyph name="Z" format="2">
  <advance width="646"/>
  <unicode hex="005A"/>
  <outline>
    <contour>
      <point x="40" y="0" type="line"/>
      <point x="608" y="0" type="line"/>
      <point x="608" y="124" type="line"/>
      <point x="118" y="124" type="line"/>
      <point x="190" y="60" type="line"/>
      <point x="602" y="602" type="line"/>
      <point x="602" y="700" type="line"/>
      <point x="38" y="700" type="line"/>
      <point x="38" y="576" type="line"/>
      <point x="529" y="576" type="line"/>
      <point x="439" y="623" type="line"/>
      <point x="40" y="99" type="line"/>
    </contour>
  </outline>
</glyph>
<glyph name="bracketleft" format="2">
  <advance width="352"/>
  <unicode hex="005B"/>
  <outline>
    <contour>
      <point x="72" y="-113" type="line"/>
      <point x="337" y="-113" type="line"/>
      <point x="337" y="-6" type="line"/>
      <point x="217" y="-6" type="line"/>
      <point x="217" y="638" type="line"/>
      <point x="337" y="638" type="line"/>
      <point x="337" y="745" type="line"/>
      <point x="72" y="745" type="line"/>
    </contour>
  </outline>
</glyph>
<glyph name="f" format="2">
  <advance width="330"/>
  <unicode hex="0066"/>
  <outline>
    <contour>
      <point x="3" y="393" type="line"/>
      <point x="324" y="393" type="line"/>
      <point x="324" y="500" type="line"/>
      <point x="3" y="500" type="line"/>
    </contour>
    <contour>
      <point x="269" y="705" type="curve" smooth="yes"/>
      <point x="148.0" y="705.0"/>
      <point x="83" y="645"/>
      <point x="83" y="532" type="curve" smooth="yes"/>
      <point x="83" y="0" type="line"/>
      <point x="223" y="0" type="line"/>
      <point x="223" y="531" type="line" smooth="yes"/>
      <point x="223" y="577.0"/>
      <point x="250" y="594"/>
      <point x="293" y="594" type="curve" smooth="yes"/>
      <point x="303" y="594"/>
      <point x="313" y="593"/>
      <point x="324" y="592" type="curve"/>
      <point x="324" y="701" type="line"/>
      <point x="312" y="703"/>
      <point x="291" y="705"/>
    </contour>
  </outline>
</glyph>
<glyph name="h" format="2">
  <advance width="556"/>
  <unicode hex="0068"/>
  <outline>
    <contour>
      <point x="55" y="700" type="line"/>
      <point x="55" y="0" type="line"/>
      <point x="195" y="0" type="line"/>
      <point x="195" y="290" type="line" smooth="yes"/>
      <point x="195" y="350"/>
      <point x="230" y="391"/>
      <point x="286" y="391" type="curve" smooth="yes"/>
      <point x="342" y="391"/>
      <point x="364" y="350"/>
      <point x="364" y="299" type="curve" smooth="yes"/>
      <point x="364" y="0" type="line"/>
      <point x="504" y="0" type="line"/>
      <point x="504" y="335" type="line" smooth="yes"/>
      <point x="504" y="443"/>
      <point x="442" y="512"/>
      <point x="341" y="512" type="curve" smooth="yes"/>
      <point x="255" y="512"/>
      <point x="200" y="459"/>
      <point x="172" y="402" type="curve"/>
      <point x="195" y="402" type="line"/>
      <point x="195" y="700" type="line"/>
    </contour>
  </outline>
</glyph>
<glyph name="k" format="2">
  <advance width="534"/>
  <unicode hex="006B"/>
  <guideline x="267" y="68" angle="90" name="center" identifier="GGDAgUW7dH"/>
  <outline>
    <contour>
      <point x="52" y="0" type="line"/>
      <point x="192" y="0" type="line"/>
      <point x="192" y="700" type="line"/>
      <point x="52" y="700" type="line"/>
    </contour>
    <contour>
      <point x="129" y="254" type="line"/>
      <point x="129" y="98" type="line"/>
      <point x="280" y="253" type="line"/>
      <point x="317" y="275" type="line"/>
      <point x="536" y="500" type="line"/>
      <point x="367" y="500" type="line"/>
    </contour>
    <contour>
      <point x="202" y="264" type="line"/>
      <point x="385" y="0" type="line"/>
      <point x="544" y="0" type="line"/>
      <point x="303" y="348" type="line"/>
    </contour>
  </outline>
</glyph>
<glyph name="m" format="2">
  <advance width="838"/>
  <unicode hex="006D"/>
  <outline>
    <contour>
      <point x="440" y="294" type="line"/>
      <point x="490" y="294" type="line"/>
      <point x="490" y="354"/>
      <point x="523" y="391"/>
      <point x="574" y="391" type="curve" smooth="yes"/>
      <point x="626" y="391"/>
      <point x="645" y="354"/>
      <point x="645" y="303" type="curve" smooth="yes"/>
      <point x="645" y="0" type="line"/>
      <point x="785" y="0" type="line"/>
      <point x="785" y="335" type="line" smooth="yes"/>
      <point x="785" y="443"/>
      <point x="729" y="512"/>
      <point x="632" y="512" type="curve" smooth="yes"/>
      <point x="548" y="512"/>
      <point x="485" y="461"/>
      <point x="451" y="402" type="curve"/>
      <point x="440" y="402" type="line"/>
    </contour>
    <contour>
      <point x="55" y="500" type="line"/>
      <point x="55" y="0" type="line"/>
      <point x="195" y="0" type="line"/>
      <point x="195" y="294" type="line" smooth="yes"/>
      <point x="195" y="354"/>
      <point x="228" y="391"/>
      <point x="279" y="391" type="curve" smooth="yes"/>
      <point x="331" y="391"/>
      <point x="350" y="354"/>
      <point x="350" y="303" type="curve" smooth="yes"/>
      <point x="350" y="0" type="line"/>
      <point x="490" y="0" type="line"/>
      <point x="490" y="335" type="line" smooth="yes"/>
      <point x="490" y="443"/>
      <point x="434" y="512"/>
      <point x="338" y="512" type="curve" smooth="yes"/>
      <point x="253" y="512"/>
      <point x="200" y="460"/>
      <point x="172" y="402" type="curve"/>
      <point x="195" y="402" type="line"/>
      <point x="195" y="500" type="line"/>
    </contour>
  </outline>
</glyph>
<glyph name="u" format="2">
  <advance width="556"/>
  <unicode hex="0075"/>
  <outline>
    <contour>
      <point x="501" y="0" type="line"/>
      <point x="501" y="500" type="line"/>
      <point x="361" y="500" type="line"/>
      <point x="361" y="210" type="line" smooth="yes"/>
      <point x="361" y="150"/>
      <point x="326" y="109"/>
      <point x="270" y="109" type="curve" smooth="yes"/>
      <point x="214" y="109"/>
      <point x="192" y="150"/>
      <point x="192" y="201" type="curve" smooth="yes"/>
      <point x="192" y="500" type="line"/>
      <point x="52" y="500" type="line"/>
      <point x="52" y="165" type="line" smooth="yes"/>
      <point x="52" y="57"/>
      <point x="114" y="-12"/>
      <point x="215" y="-12" type="curve" smooth="yes"/>
      <point x="301" y="-12"/>
      <point x="356" y="41"/>
      <point x="384" y="98" type="curve"/>
      <point x="361" y="98" type="line"/>
      <point x="361" y="0" type="line"/>
    </contour>
  </outline>
</glyph>
<glyph name="v" format="2">
  <advance width="540"/>
  <unicode hex="0076"/>
  <outline>
    <contour>
      <point x="193" y="0" type="line"/>
      <point x="348" y="0" type="line"/>
      <point x="538" y="500" type="line"/>
      <point x="391" y="500" type="line"/>
      <point x="227" y="39" type="line"/>
      <point x="315" y="39" type="line"/>
      <point x="149" y="500" type="line"/>
      <point x="2" y="500" type="line"/>
    </contour>
  </outline>
</glyph>
<glyph name="braceleft" format="2">
  <advance width="370"/>
  <unicode hex="007B"/>
  <outline>
    <contour>
      <point x="247" y="172" type="line" smooth="yes"/>
      <point x="247" y="251"/>
      <point x="234" y="296"/>
      <point x="165" y="316" type="curve"/>
      <point x="234" y="336"/>
      <point x="247" y="381"/>
      <point x="247" y="460" type="curve" smooth="yes"/>
      <point x="247" y="556" type="line" smooth="yes"/>
      <point x="247" y="613"/>
      <point x="274" y="642"/>
      <point x="339" y="642" type="curve" smooth="yes"/>
      <point x="355" y="642" type="line"/>
      <point x="355" y="745" type="line"/>
      <point x="324" y="745" type="line" smooth="yes"/>
      <point x="171" y="745"/>
      <point x="102" y="679"/>
      <point x="102" y="564" type="curve" smooth="yes"/>
      <point x="102" y="460" type="line" smooth="yes"/>
      <point x="102" y="397"/>
      <point x="86" y="375"/>
      <point x="33" y="375" type="curve" smooth="yes"/>
      <point x="0" y="375" type="line"/>
      <point x="0" y="257" type="line"/>
      <point x="33" y="257" type="line" smooth="yes"/>
      <point x="86" y="257"/>
      <point x="102" y="235"/>
      <point x="102" y="172" type="curve" smooth="yes"/>
      <point x="102" y="68" type="line" smooth="yes"/>
      <point x="102" y="-48"/>
      <point x="133" y="-113"/>
      <point x="324" y="-113" type="curve" smooth="yes"/>
      <point x="355" y="-113" type="line"/>
      <point x="355" y="-9" type="line"/>
      <point x="339" y="-9" type="line" smooth="yes"/>
      <point x="274" y="-9"/>
      <point x="247" y="17"/>
      <point x="247" y="75" type="curve" smooth="yes"/>
    </contour>
  </outline>
</glyph>
<glyph name="asciitilde" format="2">
  <advance width="535"/>
  <unicode hex="007E"/>
  <outline>
    <contour>
      <point x="359" y="232" type="curve" smooth="yes"/>
      <point x="432" y="232"/>
      <point x="496" y="297" name="inserted"/>
      <point x="505" y="408" type="curve"/>
      <point x="401" y="408" type="line"/>
      <point x="395" y="371"/>
      <point x="374" y="352" name="inserted"/>
      <point x="347" y="352" type="curve" smooth="yes"/>
      <point x="305" y="352"/>
      <point x="240" y="400" name="inserted"/>
      <point x="176" y="400" type="curve" smooth="yes"/>
      <point x="103" y="400"/>
      <point x="39" y="336" name="inserted"/>
      <point x="30" y="225" type="curve"/>
      <point x="134" y="225" type="line"/>
      <point x="140" y="262"/>
      <point x="161" y="280" name="inserted"/>
      <point x="188" y="280" type="curve" smooth="yes"/>
      <point x="230" y="280"/>
      <point x="295" y="232" name="inserted"/>
    </contour>
  </outline>
</glyph>
<glyph name="sterling" format="2">
  <advance width="618"/>
  <unicode hex="00A3"/>
  <outline>
    <contour>
      <point x="89" y="489" type="curve" smooth="yes"/>
      <point x="89" y="373"/>
      <point x="166" y="314"/>
      <point x="166" y="233" type="curve" smooth="yes"/>
      <point x="166" y="167"/>
      <point x="136" y="120"/>
      <point x="60" y="120" type="curve" smooth="yes"/>
      <point x="45" y="120" type="line"/>
      <point x="45" y="0" type="line"/>
      <point x="567" y="0" type="line"/>
      <point x="567" y="120" type="line"/>
      <point x="241" y="120" type="line"/>
      <point x="286" y="151"/>
      <point x="302" y="195"/>
      <point x="302" y="241" type="curve" smooth="yes"/>
      <point x="302" y="343"/>
      <point x="229" y="400"/>
      <point x="229" y="488" type="curve" smooth="yes"/>
      <point x="229" y="551"/>
      <point x="266" y="593"/>
      <point x="329" y="593" type="curve" smooth="yes"/>
      <point x="383" y="593"/>
      <point x="422" y="562"/>
      <point x="422" y="506" type="curve" smooth="yes"/>
      <point x="422" y="491"/>
      <point x="419" y="477"/>
      <point x="415" y="468" type="curve"/>
      <point x="547" y="453" type="line"/>
      <point x="555" y="474"/>
      <point x="558" y="497"/>
      <point x="558" y="515" type="curve" smooth="yes"/>
      <point x="558" y="618"/>
      <point x="477" y="712"/>
      <point x="330" y="712" type="curve" smooth="yes"/>
      <point x="159" y="712"/>
      <point x="89" y="604"/>
    </contour>
    <contour>
      <point x="453" y="255" type="line"/>
      <point x="453" y="361" type="line"/>
      <point x="57" y="361" type="line"/>
      <point x="57" y="255" type="line"/>
    </contour>
  </outline>
</glyph>
<glyph name="section" format="2">
  <advance width="531"/>
  <unicode hex="00A7"/>
  <outline>
    <contour>
      <point x="313" y="171" type="line"/>
      <point x="360" y="217"/>
      <point x="370" y="243"/>
      <point x="370" y="267" type="curve" smooth="yes"/>
      <point x="370" y="299"/>
      <point x="351" y="324"/>
      <point x="299" y="341" type="curve" smooth="yes"/>
      <point x="198" y="373" type="line" smooth="yes"/>
      <point x="88" y="408"/>
      <point x="39" y="454"/>
      <point x="39" y="532" type="curve" smooth="yes"/>
      <point x="39" y="643"/>
      <point x="129" y="712"/>
      <point x="263" y="712" type="curve" smooth="yes"/>
      <point x="400" y="712"/>
      <point x="486" y="638"/>
      <point x="487" y="529" type="curve"/>
      <point x="343" y="540" type="line"/>
      <point x="340" y="583"/>
      <point x="310" y="613"/>
      <point x="259" y="613" type="curve" smooth="yes"/>
      <point x="209" y="613"/>
      <point x="179" y="586"/>
      <point x="179" y="552" type="curve" smooth="yes"/>
      <point x="179" y="525"/>
      <point x="196" y="507"/>
      <point x="251" y="490" type="curve" smooth="yes"/>
      <point x="352" y="458" type="line" smooth="yes"/>
      <point x="464" y="422"/>
      <point x="507" y="370"/>
      <point x="507" y="290" type="curve" smooth="yes"/>
      <point x="507" y="215"/>
      <point x="470" y="168"/>
      <point x="409" y="110" type="curve"/>
    </contour>
    <contour>
      <point x="24" y="75" type="curve"/>
      <point x="172" y="60" type="line"/>
      <point x="176" y="6"/>
      <point x="206" y="-26"/>
      <point x="269" y="-26" type="curve" smooth="yes"/>
      <point x="326" y="-26"/>
      <point x="351" y="1"/>
      <point x="351" y="36" type="curve" smooth="yes"/>
      <point x="351" y="65"/>
      <point x="331" y="87"/>
      <point x="279" y="104" type="curve" smooth="yes"/>
      <point x="178" y="136" type="line" smooth="yes"/>
      <point x="72" y="170"/>
      <point x="28" y="224"/>
      <point x="28" y="305" type="curve" smooth="yes"/>
      <point x="28" y="382"/>
      <point x="77" y="438"/>
      <point x="147" y="482" type="curve"/>
      <point x="227" y="423" type="line"/>
      <point x="182" y="388"/>
      <point x="159" y="359"/>
      <point x="159" y="324" type="curve" smooth="yes"/>
      <point x="159" y="292"/>
      <point x="178" y="270"/>
      <point x="231" y="253" type="curve" smooth="yes"/>
      <point x="332" y="221" type="line" smooth="yes"/>
      <point x="438" y="187"/>
      <point x="492" y="135"/>
      <point x="492" y="51" type="curve" smooth="yes"/>
      <point x="492" y="-52"/>
      <point x="414" y="-126"/>
      <point x="268" y="-126" type="curve" smooth="yes"/>
      <point x="111" y="-126"/>
      <point x="28" y="-52"/>
    </contour>
  </outline>
</glyph>
<glyph name="ordfeminine" format="2">
  <advance width="405"/>
  <unicode hex="00AA"/>
  <outline>
    <contour>
      <point x="6" y="423" type="curve" smooth="yes"/>
      <point x="6" y="346"/>
      <point x="62" y="298"/>
      <point x="148" y="298" type="curve" smooth="yes"/>
      <point x="202" y="298"/>
      <point x="240" y="318"/>
      <point x="267" y="353" type="curve"/>
      <point x="283" y="313"/>
      <point x="322" y="302"/>
      <point x="364" y="302" type="curve" smooth="yes"/>
      <point x="376" y="302"/>
      <point x="383" y="303"/>
      <point x="393" y="304" type="curve"/>
      <point x="393" y="388" type="line"/>
      <point x="387" y="388" type="line" smooth="yes"/>
      <point x="373" y="388"/>
      <point x="364" y="395"/>
      <point x="364" y="414" type="curve" smooth="yes"/>
      <point x="364" y="580" type="line" smooth="yes"/>
      <point x="364" y="664"/>
      <point x="307" y="712"/>
      <point x="194" y="712" type="curve" smooth="yes"/>
      <point x="76" y="712"/>
      <point x="26" y="644"/>
      <point x="22" y="583" type="curve"/>
      <point x="140" y="564" type="line"/>
      <point x="140" y="600"/>
      <point x="151" y="624"/>
      <point x="194" y="624" type="curve" smooth="yes"/>
      <point x="236" y="624"/>
      <point x="249" y="606"/>
      <point x="249" y="572" type="curve" smooth="yes"/>
      <point x="249" y="555" type="line"/>
      <point x="141" y="543" type="line" smooth="yes"/>
      <point x="59" y="534"/>
      <point x="6" y="495"/>
    </contour>
    <contour>
      <point x="249" y="454" type="line" smooth="yes"/>
      <point x="249" y="410"/>
      <point x="216" y="382"/>
      <point x="172" y="382" type="curve" smooth="yes"/>
      <point x="140" y="382"/>
      <point x="123" y="398"/>
      <point x="123" y="424" type="curve" smooth="yes"/>
      <point x="123" y="453"/>
      <point x="140" y="465"/>
      <point x="187" y="471" type="curve" smooth="yes"/>
      <point x="249" y="479" type="line"/>
    </contour>
  </outline>
</glyph>
<glyph name="logicalnot" format="2">
  <advance width="645"/>
  <unicode hex="00AC"/>
  <outline>
    <contour>
      <point x="46" y="275" type="line"/>
      <point x="532" y="275" type="line"/>
      <point x="465" y="338" type="line"/>
      <point x="465" y="52" type="line"/>
      <point x="599" y="52" type="line"/>
      <point x="599" y="403" type="line"/>
      <point x="46" y="403" type="line"/>
    </contour>
  </outline>
</glyph>
<glyph name="registered" format="2">
  <advance width="546"/>
  <unicode hex="00AE"/>
  <outline>
    <contour>
      <point x="495" y="482" type="curve" smooth="yes"/>
      <point x="495" y="606"/>
      <point x="401" y="705"/>
      <point x="273" y="705" type="curve" smooth="yes"/>
      <point x="145" y="705"/>
      <point x="51" y="606"/>
      <point x="51" y="482" type="curve" smooth="yes"/>
      <point x="51" y="358"/>
      <point x="145" y="259"/>
      <point x="273" y="259" type="curve" smooth="yes"/>
      <point x="401" y="259"/>
      <point x="495" y="358"/>
    </contour>
    <contour>
      <point x="113" y="482" type="curve" smooth="yes"/>
      <point x="113" y="576"/>
      <point x="175" y="646"/>
      <point x="273" y="646" type="curve" smooth="yes"/>
      <point x="371" y="646"/>
      <point x="433" y="576"/>
      <point x="433" y="482" type="curve" smooth="yes"/>
      <point x="433" y="388"/>
      <point x="371" y="318"/>
      <point x="273" y="318" type="curve" smooth="yes"/>
      <point x="175" y="318"/>
      <point x="113" y="388"/>
    </contour>
    <contour>
      <point x="180" y="589" type="line"/>
      <point x="180" y="375" type="line"/>
      <point x="243" y="375" type="line"/>
      <point x="243" y="589" type="line"/>
    </contour>
    <contour>
      <point x="287" y="494" type="curve" smooth="yes"/>
      <point x="199" y="494" type="line"/>
      <point x="199" y="443" type="line"/>
      <point x="287" y="443" type="line" smooth="yes"/>
      <point x="347" y="443"/>
      <point x="375" y="470"/>
      <point x="375" y="517" type="curve" smooth="yes"/>
      <point x="375" y="564"/>
      <point x="345" y="589"/>
      <point x="287" y="589" type="curve" smooth="yes"/>
      <point x="200" y="589" type="line"/>
      <point x="200" y="536" type="line"/>
      <point x="287" y="536" type="line" smooth="yes"/>
      <point x="303" y="536"/>
      <point x="311" y="528"/>
      <point x="311" y="515" type="curve" smooth="yes"/>
      <point x="311" y="502"/>
      <point x="303" y="494"/>
    </contour>
    <contour>
      <point x="250" y="452" type="line"/>
      <point x="270" y="424"/>
      <point x="294" y="399"/>
      <point x="315" y="375" type="curve"/>
      <point x="385" y="375" type="line"/>
      <point x="385" y="377" type="line"/>
      <point x="364" y="400"/>
      <point x="340" y="425"/>
      <point x="319" y="452" type="curve"/>
    </contour>
  </outline>
</glyph>
<glyph name="AE" format="2">
  <advance width="1092"/>
  <unicode hex="00C6"/>
  <guideline x="697" y="700" angle="90" name="center" identifier="GYOTN37zmf"/>
  <outline>
    <contour>
      <point x="372" y="700" type="line"/>
      <point x="-15" y="0" type="line"/>
      <point x="147" y="0" type="line"/>
      <point x="463" y="576" type="line"/>
      <point x="537" y="576" type="line"/>
      <point x="537" y="700" type="line"/>
    </contour>
    <contour>
      <point x="212" y="323" type="line"/>
      <point x="212" y="201" type="line"/>
      <point x="564" y="201" type="line"/>
      <point x="564" y="323" type="line"/>
    </contour>
    <contour>
      <point x="564" y="417" type="line"/>
      <point x="564" y="294" type="line"/>
      <point x="910" y="294" type="line"/>
      <point x="910" y="417" type="line"/>
    </contour>
    <contour>
      <point x="558" y="124" type="line"/>
      <point x="558" y="0" type="line"/>
      <point x="1066" y="0" type="line"/>
      <point x="1066" y="124" type="line"/>
    </contour>
    <contour>
      <point x="554" y="700" type="line"/>
      <point x="554" y="576" type="line"/>
      <point x="1048" y="576" type="line"/>
      <point x="1048" y="700" type="line"/>
    </contour>
    <contour>
      <point x="493" y="700" type="line"/>
      <point x="493" y="0" type="line"/>
      <point x="643" y="0" type="line"/>
      <point x="643" y="700" type="line"/>
    </contour>
  </outline>
</glyph>
<glyph name="Thorn" format="2">
  <advance width="650"/>
  <unicode hex="00DE"/>
  <outline>
    <contour>
      <point x="67" y="700" type="line"/>
      <point x="67" y="0" type="line"/>
      <point x="217" y="0" type="line"/>
      <point x="217" y="700" type="line"/>
    </contour>
    <contour>
      <point x="376" y="440" type="line" smooth="yes"/>
      <point x="442" y="440"/>
      <point x="477" y="409"/>
      <point x="477" y="355" type="curve" smooth="yes"/>
      <point x="477" y="301"/>
      <point x="442" y="270"/>
      <point x="376" y="270" type="curve" smooth="yes"/>
      <point x="140" y="270" type="line"/>
      <point x="140" y="147" type="line"/>
      <point x="391" y="147" type="line" smooth="yes"/>
      <point x="563" y="147"/>
      <point x="629" y="235"/>
      <point x="629" y="355" type="curve" smooth="yes"/>
      <point x="629" y="475"/>
      <point x="563" y="563"/>
      <point x="391" y="563" type="curve" smooth="yes"/>
      <point x="140" y="563" type="line"/>
      <point x="140" y="440" type="line"/>
    </contour>
  </outline>
</glyph>
<glyph name="germandbls" format="2">
  <advance width="570"/>
  <unicode hex="00DF"/>
  <outline>
    <contour>
      <point x="52" y="506" type="curve" smooth="yes"/>
      <point x="52" y="0" type="line"/>
      <point x="192" y="0" type="line"/>
      <point x="192" y="506" type="line" smooth="yes"/>
      <point x="192" y="561"/>
      <point x="225" y="603"/>
      <point x="285" y="603" type="curve" smooth="yes"/>
      <point x="336" y="603"/>
      <point x="374" y="573"/>
      <point x="374" y="515" type="curve" smooth="yes"/>
      <point x="374" y="457"/>
      <point x="339" y="423"/>
      <point x="270" y="423" type="curve" smooth="yes"/>
      <point x="246" y="423" type="line"/>
      <point x="246" y="316" type="line"/>
      <point x="274" y="316" type="line" smooth="yes"/>
      <point x="356" y="316"/>
      <point x="408" y="283"/>
      <point x="408" y="205" type="curve" smooth="yes"/>
      <point x="408" y="139"/>
      <point x="370" y="101"/>
      <point x="304" y="101" type="curve" smooth="yes"/>
      <point x="279" y="101"/>
      <point x="257" y="107"/>
      <point x="241" y="114" type="curve"/>
      <point x="241" y="1" type="line"/>
      <point x="255" y="-4"/>
      <point x="292" y="-12"/>
      <point x="333" y="-12" type="curve" smooth="yes"/>
      <point x="479" y="-12"/>
      <point x="549" y="89"/>
      <point x="549" y="197" type="curve" smooth="yes"/>
      <point x="549" y="309"/>
      <point x="478" y="360"/>
      <point x="418" y="377" type="curve"/>
      <point x="418" y="371" type="line"/>
      <point x="452" y="387"/>
      <point x="514" y="434"/>
      <point x="514" y="521" type="curve" smooth="yes"/>
      <point x="514" y="634"/>
      <point x="424" y="712"/>
      <point x="286" y="712" type="curve" smooth="yes"/>
      <point x="140" y="712"/>
      <point x="52" y="625"/>
    </contour>
  </outline>
</glyph>
<glyph name="idieresis" format="2">
  <advance width="250"/>
  <unicode hex="00EF"/>
  <outline>
    <contour>
      <point x="-31" y="700" type="line"/>
      <point x="-31" y="564" type="line"/>
      <point x="103" y="564" type="line"/>
      <point x="103" y="700" type="line"/>
    </contour>
    <contour>
      <point x="147" y="700" type="line"/>
      <point x="147" y="564" type="line"/>
      <point x="281" y="564" type="line"/>
      <point x="281" y="700" type="line"/>
    </contour>
    <component base="dotlessi"/>
  </outline>
</glyph>
<glyph name="Aogonek" format="2">
  <advance width="670"/>
  <unicode hex="0104"/>
  <outline>
    <contour>
      <point x="160" y="272" type="line"/>
      <point x="160" y="150" type="line"/>
      <point x="509" y="150" type="line"/>
      <point x="509" y="272" type="line"/>
    </contour>
    <contour>
      <point x="537" y="-34" type="line"/>
      <point x="672" y="0" type="line"/>
      <point x="415" y="700" type="line"/>
      <point x="259" y="700" type="line"/>
      <point x="-2" y="0" type="line"/>
      <point x="144" y="0" type="line"/>
      <point x="378" y="644" type="line"/>
      <point x="295" y="644" type="line"/>
    </contour>
    <contour>
      <point x="602" y="-203" type="curve" smooth="yes"/>
      <point x="625" y="-203"/>
      <point x="660" y="-200"/>
      <point x="685" y="-193" type="curve"/>
      <point x="685" y="-106" type="line"/>
      <point x="665" y="-111"/>
      <point x="649" y="-114"/>
      <point x="631" y="-114" type="curve" smooth="yes"/>
      <point x="601" y="-114"/>
      <point x="586" y="-104"/>
      <point x="586" y="-85" type="curve" smooth="yes"/>
      <point x="586" y="-56"/>
      <point x="620" y="-30"/>
      <point x="672" y="0" type="curve"/>
      <point x="559" y="0" type="line"/>
      <point x="515" y="-24"/>
      <point x="473" y="-63"/>
      <point x="473" y="-117" type="curve" smooth="yes"/>
      <point x="473" y="-170"/>
      <point x="517" y="-203"/>
    </contour>
  </outline>
</glyph>
<glyph name="aogonek" format="2">
  <advance width="535"/>
  <unicode hex="0105"/>
  <outline>
    <contour>
      <point x="352" y="100" type="line"/>
      <point x="358" y="14"/>
      <point x="412" y="-7"/>
      <point x="478" y="-7" type="curve" smooth="yes"/>
      <point x="493" y="-7"/>
      <point x="503" y="-4"/>
      <point x="515" y="-2" type="curve"/>
      <point x="515" y="100" type="line"/>
      <point x="512" y="100"/>
      <point x="511" y="100"/>
      <point x="507" y="100" type="curve" smooth="yes"/>
      <point x="490" y="100"/>
      <point x="478" y="108"/>
      <point x="478" y="133" type="curve" smooth="yes"/>
      <point x="478" y="345" type="line" smooth="yes"/>
      <point x="478" y="451"/>
      <point x="408" y="512"/>
      <point x="265" y="512" type="curve" smooth="yes"/>
      <point x="115" y="512"/>
      <point x="53" y="426"/>
      <point x="48" y="349" type="curve"/>
      <point x="186" y="325" type="line"/>
      <point x="187" y="372"/>
      <point x="206" y="405"/>
      <point x="266" y="405" type="curve" smooth="yes"/>
      <point x="322" y="405"/>
      <point x="341" y="379"/>
      <point x="341" y="335" type="curve" smooth="yes"/>
      <point x="341" y="185" type="line" smooth="yes"/>
      <point x="341" y="130"/>
      <point x="293" y="91"/>
      <point x="237" y="91" type="curve" smooth="yes"/>
      <point x="192" y="91"/>
      <point x="167" y="115"/>
      <point x="167" y="148" type="curve" smooth="yes"/>
      <point x="167" y="184"/>
      <point x="194" y="203"/>
      <point x="257" y="210" type="curve" smooth="yes"/>
      <point x="411" y="228" type="line"/>
      <point x="411" y="322" type="line"/>
      <point x="199" y="298" type="line" smooth="yes"/>
      <point x="95" y="286"/>
      <point x="28" y="237"/>
      <point x="28" y="146" type="curve" smooth="yes"/>
      <point x="28" y="49"/>
      <point x="99" y="-12"/>
      <point x="207" y="-12" type="curve" smooth="yes"/>
      <point x="295" y="-12"/>
      <point x="352" y="30"/>
      <point x="387" y="100" type="curve"/>
    </contour>
    <contour>
      <point x="445" y="-203" type="curve" smooth="yes"/>
      <point x="468" y="-203"/>
      <point x="503" y="-200"/>
      <point x="528" y="-193" type="curve"/>
      <point x="528" y="-106" type="line"/>
      <point x="508" y="-111"/>
      <point x="492" y="-114"/>
      <point x="474" y="-114" type="curve" smooth="yes"/>
      <point x="444" y="-114"/>
      <point x="429" y="-104"/>
      <point x="429" y="-85" type="curve" smooth="yes"/>
      <point x="429" y="-56"/>
      <point x="463" y="-27"/>
      <point x="515" y="-2" type="curve"/>
      <point x="413" y="13" type="line"/>
      <point x="358" y="-23"/>
      <point x="316" y="-62"/>
      <point x="316" y="-116" type="curve" smooth="yes"/>
      <point x="316" y="-170"/>
      <point x="360" y="-203"/>
    </contour>
  </outline>
</glyph>
<glyph name="dcroat" format="2">
  <advance width="584"/>
  <unicode hex="0111"/>
  <outline>
    <contour>
      <point x="270" y="547" type="line"/>
      <point x="588" y="547" type="line"/>
      <point x="588" y="627" type="line"/>
      <point x="270" y="627" type="line"/>
    </contour>
    <component base="d"/>
  </outline>
</glyph>
<glyph name="Hbar" format="2">
  <advance width="736"/>
  <unicode hex="0126"/>
  <outline>
    <contour>
      <point x="5" y="500" type="line"/>
      <point x="731" y="500" type="line"/>
      <point x="731" y="608" type="line"/>
      <point x="5" y="608" type="line"/>
    </contour>
    <contour>
      <point x="130" y="279" type="line"/>
      <point x="607" y="279" type="line"/>
      <point x="607" y="403" type="line"/>
      <point x="130" y="403" type="line"/>
    </contour>
    <contour>
      <point x="518" y="700" type="line"/>
      <point x="518" y="0" type="line"/>
      <point x="669" y="0" type="line"/>
      <point x="669" y="700" type="line"/>
    </contour>
    <contour>
      <point x="67" y="700" type="line"/>
      <point x="67" y="0" type="line"/>
      <point x="218" y="0" type="line"/>
      <point x="218" y="700" type="line"/>
    </contour>
  </outline>
</glyph>
<glyph name="itilde" format="2">
  <advance width="250"/>
  <unicode hex="0129"/>
  <outline>
    <contour>
      <point x="65" y="694" type="curve" smooth="yes"/>
      <point x="12.0" y="694.0"/>
      <point x="-22" y="646"/>
      <point x="-25" y="564" type="curve"/>
      <point x="62" y="564" type="line"/>
      <point x="64" y="584"/>
      <point x="68" y="597"/>
      <point x="82" y="597" type="curve" smooth="yes"/>
      <point x="104" y="597"/>
      <point x="144" y="569"/>
      <point x="185" y="569" type="curve" smooth="yes"/>
      <point x="238.0" y="569.0"/>
      <point x="272" y="617"/>
      <point x="275" y="699" type="curve"/>
      <point x="187" y="699" type="line"/>
      <point x="185" y="679"/>
      <point x="182" y="666"/>
      <point x="168" y="666" type="curve" smooth="yes"/>
      <point x="146" y="666"/>
      <point x="106" y="694"/>
    </contour>
    <component base="dotlessi"/>
  </outline>
</glyph>
<glyph name="ibreve" format="2">
  <advance width="250"/>
  <unicode hex="012D"/>
  <outline>
    <contour>
      <point x="-25" y="700" type="line"/>
      <point x="-25" y="629"/>
      <point x="23" y="559"/>
      <point x="125" y="559" type="curve" smooth="yes"/>
      <point x="227" y="559"/>
      <point x="275" y="629"/>
      <point x="275" y="700" type="curve"/>
      <point x="172" y="700" type="line"/>
      <point x="172" y="669"/>
      <point x="156" y="647"/>
      <point x="125" y="647" type="curve" smooth="yes"/>
      <point x="94" y="647"/>
      <point x="78" y="669"/>
      <point x="78" y="700" type="curve"/>
    </contour>
    <component base="dotlessi"/>
  </outline>
</glyph>
<glyph name="dotlessi" format="2">
  <advance width="250"/>
  <unicode hex="0131"/>
  <outline>
    <contour>
      <point x="55" y="500" type="line"/>
      <point x="55" y="393" type="line"/>
      <point x="195" y="393" type="line"/>
      <point x="195" y="500" type="line"/>
    </contour>
    <contour>
      <point x="55" y="107" type="line"/>
      <point x="55" y="0" type="line"/>
      <point x="195" y="0" type="line"/>
      <point x="195" y="107" type="line"/>
    </contour>
    <contour>
      <point x="55" y="500" type="line"/>
      <point x="55" y="0" type="line"/>
      <point x="195" y="0" type="line"/>
      <point x="195" y="500" type="line"/>
    </contour>
  </outline>
</glyph>
<glyph name="ij" format="2">
  <advance width="500"/>
  <unicode hex="0133"/>
  <outline>
    <contour>
      <point x="53" y="700" type="line"/>
      <point x="53" y="564" type="line"/>
      <point x="197" y="564" type="line"/>
      <point x="197" y="700" type="line"/>
    </contour>
    <contour>
      <point x="55" y="500" type="line"/>
      <point x="55" y="0" type="line"/>
      <point x="195" y="0" type="line"/>
      <point x="195" y="500" type="line"/>
    </contour>
    <contour>
      <point x="55" y="0" type="line"/>
      <point x="195" y="0" type="line"/>
      <point x="195" y="107" type="line"/>
      <point x="55" y="107" type="line"/>
    </contour>
    <contour>
      <point x="55" y="393" type="line"/>
      <point x="195" y="393" type="line"/>
      <point x="195" y="500" type="line"/>
      <point x="55" y="500" type="line"/>
    </contour>
    <contour>
      <point x="237" y="-183" type="line"/>
      <point x="250" y="-187"/>
      <point x="279" y="-190"/>
      <point x="302" y="-190" type="curve" smooth="yes"/>
      <point x="369" y="-190"/>
      <point x="445" y="-164"/>
      <point x="445" y="-71" type="curve" smooth="yes"/>
      <point x="445" y="500" type="line"/>
      <point x="305" y="500" type="line"/>
      <point x="305" y="-35" type="line" smooth="yes"/>
      <point x="305" y="-68"/>
      <point x="294" y="-81"/>
      <point x="265" y="-81" type="curve" smooth="yes"/>
      <point x="257" y="-81"/>
      <point x="249" y="-80"/>
      <point x="237" y="-79" type="curve"/>
    </contour>
    <contour>
      <point x="305" y="393" type="line"/>
      <point x="445" y="393" type="line"/>
      <point x="445" y="500" type="line"/>
      <point x="305" y="500" type="line"/>
    </contour>
    <contour>
      <point x="303" y="700" type="line"/>
      <point x="303" y="564" type="line"/>
      <point x="447" y="564" type="line"/>
      <point x="447" y="700" type="line"/>
    </contour>
  </outline>
</glyph>
<glyph name="Ldot" format="2">
  <advance width="630"/>
  <unicode hex="013F"/>
  <outline>
    <contour>
      <point x="384" y="485" type="line"/>
      <point x="384" y="336" type="line"/>
      <point x="531" y="336" type="line"/>
      <point x="531" y="485" type="line"/>
    </contour>
    <component base="L"/>
  </outline>
</glyph>
<glyph name="ldot" format="2">
  <advance width="347"/>
  <unicode hex="0140"/>
  <outline>
    <contour>
      <point x="233" y="446" type="line"/>
      <point x="233" y="303" type="line"/>
      <point x="364" y="303" type="line"/>
      <point x="364" y="446" type="line"/>
    </contour>
    <component base="l"/>
  </outline>
</glyph>
<glyph name="Lslash" format="2">
  <advance width="630"/>
  <unicode hex="0141"/>
  <outline>
    <contour>
      <point x="5" y="303" type="line"/>
      <point x="5" y="174" type="line"/>
      <point x="429" y="371" type="line"/>
      <point x="429" y="500" type="line"/>
    </contour>
    <component base="L"/>
  </outline>
</glyph>
<glyph name="eng" format="2">
  <advance width="556"/>
  <unicode hex="014B"/>
  <outline>
    <contour>
      <point x="55" y="500" type="line"/>
      <point x="55" y="0" type="line"/>
      <point x="195" y="0" type="line"/>
      <point x="195" y="290" type="line" smooth="yes"/>
      <point x="195" y="350"/>
      <point x="230" y="391"/>
      <point x="286" y="391" type="curve" smooth="yes"/>
      <point x="342" y="391"/>
      <point x="364" y="350"/>
      <point x="364" y="299" type="curve" smooth="yes"/>
      <point x="364" y="0" type="line"/>
      <point x="504" y="0" type="line"/>
      <point x="504" y="335" type="line" smooth="yes"/>
      <point x="504" y="443"/>
      <point x="442" y="512"/>
      <point x="341" y="512" type="curve" smooth="yes"/>
      <point x="255" y="512"/>
      <point x="200" y="459"/>
      <point x="172" y="402" type="curve"/>
      <point x="195" y="402" type="line"/>
      <point x="195" y="500" type="line"/>
    </contour>
    <contour>
      <point x="296" y="-183" type="line"/>
      <point x="309" y="-187"/>
      <point x="338" y="-190"/>
      <point x="361" y="-190" type="curve" smooth="yes"/>
      <point x="428" y="-190"/>
      <point x="504" y="-164"/>
      <point x="504" y="-71" type="curve" smooth="yes"/>
      <point x="504" y="100" type="line"/>
      <point x="364" y="100" type="line"/>
      <point x="364" y="-35" type="line" smooth="yes"/>
      <point x="364" y="-68"/>
      <point x="353" y="-81"/>
      <point x="324" y="-81" type="curve" smooth="yes"/>
      <point x="316" y="-81"/>
      <point x="308" y="-80"/>
      <point x="296" y="-79" type="curve"/>
    </contour>
  </outline>
</glyph>
<glyph name="OE" format="2">
  <advance width="1211"/>
  <unicode hex="0152"/>
  <outline>
    <contour>
      <point x="608" y="700" type="line"/>
      <point x="608" y="0" type="line"/>
      <point x="758" y="0" type="line"/>
      <point x="758" y="700" type="line"/>
    </contour>
    <contour>
      <point x="669" y="576" type="line"/>
      <point x="1163" y="576" type="line"/>
      <point x="1163" y="700" type="line"/>
      <point x="669" y="700" type="line"/>
    </contour>
    <contour>
      <point x="679" y="294" type="line"/>
      <point x="1025" y="294" type="line"/>
      <point x="1025" y="417" type="line"/>
      <point x="679" y="417" type="line"/>
    </contour>
    <contour>
      <point x="673" y="0" type="line"/>
      <point x="1181" y="0" type="line"/>
      <point x="1181" y="124" type="line"/>
      <point x="673" y="124" type="line"/>
    </contour>
    <contour>
      <point x="399" y="712" type="curve" smooth="yes"/>
      <point x="192" y="712"/>
      <point x="38" y="562"/>
      <point x="38" y="350" type="curve" smooth="yes"/>
      <point x="38" y="138"/>
      <point x="192" y="-12"/>
      <point x="399" y="-12" type="curve" smooth="yes"/>
      <point x="602" y="-12"/>
      <point x="713" y="138"/>
      <point x="713" y="350" type="curve" smooth="yes"/>
      <point x="713" y="562"/>
      <point x="602" y="712"/>
    </contour>
    <contour>
      <point x="400" y="116" type="curve" smooth="yes"/>
      <point x="283" y="116"/>
      <point x="193" y="204"/>
      <point x="193" y="350" type="curve" smooth="yes"/>
      <point x="193" y="496"/>
      <point x="283" y="584"/>
      <point x="400" y="584" type="curve" smooth="yes"/>
      <point x="517" y="584"/>
      <point x="608" y="496"/>
      <point x="608" y="350" type="curve" smooth="yes"/>
      <point x="608" y="204"/>
      <point x="517" y="116"/>
    </contour>
  </outline>
</glyph>
<glyph name="oe" format="2">
  <advance width="933"/>
  <unicode hex="0153"/>
  <outline>
    <contour>
      <point x="663" y="-12" type="curve" smooth="yes"/>
      <point x="783" y="-12"/>
      <point x="873" y="50"/>
      <point x="899" y="138" type="curve"/>
      <point x="773" y="172" type="line"/>
      <point x="755" y="124"/>
      <point x="718" y="98"/>
      <point x="663" y="98" type="curve" smooth="yes"/>
      <point x="590" y="98"/>
      <point x="546" y="145"/>
      <point x="546" y="250" type="curve" smooth="yes"/>
      <point x="546" y="351"/>
      <point x="593" y="400"/>
      <point x="662" y="400" type="curve" smooth="yes"/>
      <point x="731" y="400"/>
      <point x="768" y="350"/>
      <point x="768" y="252" type="curve"/>
      <point x="825" y="308" type="line"/>
      <point x="474" y="308" type="line"/>
      <point x="474" y="204" type="line"/>
      <point x="906" y="204" type="line"/>
      <point x="906" y="245" type="line" smooth="yes"/>
      <point x="906" y="404"/>
      <point x="810" y="512"/>
      <point x="662" y="512" type="curve" smooth="yes"/>
      <point x="517" y="512"/>
      <point x="418" y="409"/>
      <point x="418" y="250" type="curve" smooth="yes"/>
      <point x="418" y="91"/>
      <point x="516" y="-12"/>
    </contour>
    <contour>
      <point x="290" y="-12" type="curve" smooth="yes"/>
      <point x="434" y="-12"/>
      <point x="535" y="91"/>
      <point x="535" y="250" type="curve" smooth="yes"/>
      <point x="535" y="409"/>
      <point x="434" y="512"/>
      <point x="290" y="512" type="curve" smooth="yes"/>
      <point x="143" y="512"/>
      <point x="33" y="409"/>
      <point x="33" y="250" type="curve" smooth="yes"/>
      <point x="33" y="91"/>
      <point x="143" y="-12"/>
    </contour>
    <contour>
      <point x="290" y="396" type="curve" smooth="yes"/>
      <point x="361" y="396"/>
      <point x="406" y="344"/>
      <point x="406" y="250" type="curve" smooth="yes"/>
      <point x="406" y="156"/>
      <point x="361" y="104"/>
      <point x="290" y="104" type="curve" smooth="yes"/>
      <point x="219" y="104"/>
      <point x="174" y="156"/>
      <point x="174" y="250" type="curve" smooth="yes"/>
      <point x="174" y="344"/>
      <point x="219" y="396"/>
    </contour>
  </outline>
</glyph>
<glyph name="uogonek" format="2">
  <advance width="556"/>
  <unicode hex="0173"/>
  <outline>
    <contour>
      <point x="52" y="165" type="line" smooth="yes"/>
      <point x="52" y="57"/>
      <point x="114" y="-12"/>
      <point x="215" y="-12" type="curve" smooth="yes"/>
      <point x="301" y="-12"/>
      <point x="356" y="41"/>
      <point x="384" y="98" type="curve"/>
      <point x="361" y="98" type="line"/>
      <point x="361" y="-45" type="line"/>
      <point x="501" y="0" type="line"/>
      <point x="501" y="500" type="line"/>
      <point x="361" y="500" type="line"/>
      <point x="361" y="210" type="line" smooth="yes"/>
      <point x="361" y="150"/>
      <point x="326" y="109"/>
      <point x="270" y="109" type="curve" smooth="yes"/>
      <point x="214" y="109"/>
      <point x="192" y="150"/>
      <point x="192" y="201" type="curve" smooth="yes"/>
      <point x="192" y="500" type="line"/>
      <point x="52" y="500" type="line"/>
    </contour>
    <contour>
      <point x="302" y="-116" type="curve" smooth="yes"/>
      <point x="302" y="-170"/>
      <point x="346" y="-203"/>
      <point x="431" y="-203" type="curve" smooth="yes"/>
      <point x="454" y="-203"/>
      <point x="489" y="-200"/>
      <point x="514" y="-193" type="curve"/>
      <point x="514" y="-106" type="line"/>
      <point x="494" y="-111"/>
      <point x="478" y="-114"/>
      <point x="460" y="-114" type="curve" smooth="yes"/>
      <point x="430" y="-114"/>
      <point x="415" y="-104"/>
      <point x="415" y="-85" type="curve" smooth="yes"/>
      <point x="415" y="-56"/>
      <point x="449" y="-30"/>
      <point x="501" y="0" type="curve"/>
      <point x="380" y="0" type="line"/>
      <point x="345" y="-23"/>
      <point x="302" y="-62"/>
    </contour>
  </outline>
</glyph>
<glyph name="Ereversed" format="2">
  <advance width="670"/>
  <unicode hex="018E"/>
  <outline>
    <contour>
      <point x="603" y="700" type="line"/>
      <point x="453" y="700" type="line"/>
      <point x="453" y="0" type="line"/>
      <point x="603" y="0" type="line"/>
    </contour>
    <contour>
      <point x="542" y="576" type="line"/>
      <point x="542" y="700" type="line"/>
      <point x="48" y="700" type="line"/>
      <point x="48" y="576" type="line"/>
    </contour>
    <contour>
      <point x="532" y="294" type="line"/>
      <point x="532" y="417" type="line"/>
      <point x="186" y="417" type="line"/>
      <point x="186" y="294" type="line"/>
    </contour>
    <contour>
      <point x="538" y="0" type="line"/>
      <point x="538" y="124" type="line"/>
      <point x="30" y="124" type="line"/>
      <point x="30" y="0" type="line"/>
    </contour>
  </outline>
</glyph>
<glyph name="Khook" format="2">
  <advance width="686"/>
  <unicode hex="0198"/>
  <outline>
    <contour>
      <point x="67" y="700" type="line"/>
      <point x="67" y="0" type="line"/>
      <point x="218" y="0" type="line"/>
      <point x="218" y="700" type="line"/>
    </contour>
    <contour>
      <point x="252" y="334" type="line"/>
      <point x="520" y="0" type="line"/>
      <point x="701" y="0" type="line"/>
      <point x="351" y="436" type="line"/>
    </contour>
    <contour>
      <point x="607" y="581" type="curve" smooth="yes"/>
      <point x="636" y="581"/>
      <point x="657" y="572"/>
      <point x="675" y="563" type="curve"/>
      <point x="678" y="692" type="line"/>
      <point x="649" y="705"/>
      <point x="618" y="712"/>
      <point x="585" y="712" type="curve" smooth="yes"/>
      <point x="522" y="712"/>
      <point x="471" y="685"/>
      <point x="416" y="624" type="curve" smooth="yes"/>
      <point x="132" y="310" type="line"/>
      <point x="137" y="133" type="line"/>
      <point x="324" y="334" type="line"/>
      <point x="357" y="360" type="line"/>
      <point x="523" y="542" type="line" smooth="yes"/>
      <point x="552" y="573"/>
      <point x="579" y="581"/>
    </contour>
  </outline>
</glyph>
<glyph name="Nhookleft" format="2">
  <advance width="774"/>
  <unicode hex="019D"/>
  <outline>
    <contour>
      <point x="629" y="118" type="line"/>
      <point x="265" y="700" type="line"/>
      <point x="67" y="700" type="line"/>
      <point x="67" y="0" type="line"/>
      <point x="213" y="0" type="line"/>
      <point x="213" y="580" type="line"/>
      <point x="178" y="580" type="line"/>
      <point x="541" y="0" type="line"/>
      <point x="707" y="0" type="line"/>
      <point x="707" y="700" type="line"/>
      <point x="562" y="700" type="line"/>
      <point x="562" y="118" type="line"/>
    </contour>
    <contour>
      <point x="-9" y="-77" type="curve" smooth="yes"/>
      <point x="-19" y="-77"/>
      <point x="-36" y="-76"/>
      <point x="-53" y="-71" type="curve"/>
      <point x="-53" y="-183" type="line"/>
      <point x="-29" y="-188"/>
      <point x="-3" y="-192"/>
      <point x="29" y="-192" type="curve" smooth="yes"/>
      <point x="145" y="-192"/>
      <point x="213" y="-136"/>
      <point x="213" y="-25" type="curve" smooth="yes"/>
      <point x="213" y="80" type="line"/>
      <point x="67" y="80" type="line"/>
      <point x="67" y="-13" type="line" smooth="yes"/>
      <point x="67" y="-59"/>
      <point x="31" y="-77"/>
    </contour>
  </outline>
</glyph>
<glyph name="oogonek" format="2">
  <advance width="566"/>
  <unicode hex="01EB"/>
  <outline>
    <contour>
      <point x="306" y="-203" type="curve" smooth="yes"/>
      <point x="329" y="-203"/>
      <point x="364" y="-200"/>
      <point x="389" y="-193" type="curve"/>
      <point x="389" y="-106" type="line"/>
      <point x="369" y="-111"/>
      <point x="353" y="-114"/>
      <point x="335" y="-114" type="curve" smooth="yes"/>
      <point x="305" y="-114"/>
      <point x="290" y="-104"/>
      <point x="290" y="-85" type="curve" smooth="yes"/>
      <point x="290" y="-58"/>
      <point x="320" y="-29"/>
      <point x="398" y="12" type="curve" smooth="yes"/>
      <point x="480" y="55"/>
      <point x="533" y="136"/>
      <point x="533" y="250" type="curve" smooth="yes"/>
      <point x="533" y="409"/>
      <point x="427" y="512"/>
      <point x="283" y="512" type="curve" smooth="yes"/>
      <point x="139" y="512"/>
      <point x="33" y="409"/>
      <point x="33" y="250" type="curve" smooth="yes"/>
      <point x="33" y="91"/>
      <point x="139" y="-12"/>
      <point x="283" y="-12" type="curve" smooth="yes"/>
      <point x="287" y="-12"/>
      <point x="291" y="-12"/>
      <point x="294" y="-12" type="curve"/>
      <point x="266" y="9" type="line"/>
      <point x="210" y="-33"/>
      <point x="177" y="-69"/>
      <point x="177" y="-116" type="curve" smooth="yes"/>
      <point x="177" y="-170"/>
      <point x="221" y="-203"/>
    </contour>
    <contour>
      <point x="283" y="396" type="curve" smooth="yes"/>
      <point x="352" y="396"/>
      <point x="392" y="344"/>
      <point x="392" y="250" type="curve" smooth="yes"/>
      <point x="392" y="156"/>
      <point x="352" y="104"/>
      <point x="283" y="104" type="curve" smooth="yes"/>
      <point x="214" y="104"/>
      <point x="174" y="156"/>
      <point x="174" y="250" type="curve" smooth="yes"/>
      <point x="174" y="344"/>
      <point x="214" y="396"/>
    </contour>
  </outline>
</glyph>
<glyph name="dotlessj" format="2">
  <advance width="250"/>
  <unicode hex="0237"/>
  <guideline x="126" y="490" angle="90" name="center" identifier="gyeq5WPwhy"/>
  <outline>
    <contour>
      <point x="-13" y="-183" type="line"/>
      <point x="0" y="-187"/>
      <point x="29" y="-190"/>
      <point x="52" y="-190" type="curve" smooth="yes"/>
      <point x="119" y="-190"/>
      <point x="195" y="-164"/>
      <point x="195" y="-71" type="curve" smooth="yes"/>
      <point x="195" y="500" type="line"/>
      <point x="55" y="500" type="line"/>
      <point x="55" y="-35" type="line" smooth="yes"/>
      <point x="55" y="-68"/>
      <point x="44" y="-81"/>
      <point x="15" y="-81" type="curve" smooth="yes"/>
      <point x="7" y="-81"/>
      <point x="-1" y="-80"/>
      <point x="-13" y="-79" type="curve"/>
    </contour>
    <contour>
      <point x="55" y="393" type="line"/>
      <point x="195" y="393" type="line"/>
      <point x="195" y="500" type="line"/>
      <point x="55" y="500" type="line"/>
    </contour>
  </outline>
</glyph>
<glyph name="dhook" format="2">
  <advance width="584"/>
  <unicode hex="0257"/>
  <outline>
    <contour>
      <point x="286" y="104" type="curve" smooth="yes"/>
      <point x="218" y="104"/>
      <point x="174" y="154"/>
      <point x="174" y="250" type="curve" smooth="yes"/>
      <point x="174" y="346"/>
      <point x="218" y="396"/>
      <point x="286" y="396" type="curve" smooth="yes"/>
      <point x="354" y="396"/>
      <point x="398" y="346"/>
      <point x="398" y="250" type="curve" smooth="yes"/>
      <point x="398" y="154"/>
      <point x="354" y="104"/>
    </contour>
    <contour>
      <point x="532" y="537" type="line" smooth="yes"/>
      <point x="532" y="577"/>
      <point x="546" y="596"/>
      <point x="578" y="596" type="curve" smooth="yes"/>
      <point x="591" y="596"/>
      <point x="610" y="592"/>
      <point x="620" y="589" type="curve"/>
      <point x="623" y="694" type="line"/>
      <point x="608" y="700"/>
      <point x="573" y="707"/>
      <point x="541" y="707" type="curve" smooth="yes"/>
      <point x="453" y="707"/>
      <point x="392" y="654"/>
      <point x="392" y="544" type="curve" smooth="yes"/>
      <point x="392" y="379" type="line"/>
      <point x="425" y="379" type="line"/>
      <point x="394" y="460"/>
      <point x="328" y="512"/>
      <point x="241" y="512" type="curve" smooth="yes"/>
      <point x="132" y="512"/>
      <point x="33" y="421"/>
      <point x="33" y="249" type="curve" smooth="yes"/>
      <point x="33" y="76"/>
      <point x="132" y="-12"/>
      <point x="241" y="-12" type="curve" smooth="yes"/>
      <point x="328" y="-12"/>
      <point x="394" y="38"/>
      <point x="425" y="119" type="curve"/>
      <point x="392" y="119" type="line"/>
      <point x="392" y="0" type="line"/>
      <point x="532" y="0" type="line"/>
    </contour>
  </outline>
</glyph>
<glyph name="vturned" format="2">
  <advance width="540"/>
  <unicode hex="028C"/>
  <outline>
    <contour>
      <point x="347" y="500" type="line"/>
      <point x="192" y="500" type="line"/>
      <point x="2" y="0" type="line"/>
      <point x="149" y="0" type="line"/>
      <point x="313" y="461" type="line"/>
      <point x="225" y="461" type="line"/>
      <point x="391" y="0" type="line"/>
      <point x="538" y="0" type="line"/>
    </contour>
  </outline>
</glyph>
<glyph name="ringhalfrightmod" format="2">
  <advance width="238"/>
  <unicode hex="02BE"/>
  <outline>
    <contour>
      <point x="41" y="469" type="line" smooth="yes"/>
      <point x="83" y="469"/>
      <point x="112" y="495"/>
      <point x="112" y="535" type="curve" smooth="yes"/>
      <point x="112" y="575"/>
      <point x="83" y="601"/>
      <point x="41" y="601" type="curve" smooth="yes"/>
      <point x="23" y="601" type="line"/>
      <point x="23" y="700" type="line"/>
      <point x="41" y="700" type="line" smooth="yes"/>
      <point x="160" y="700"/>
      <point x="223" y="630"/>
      <point x="223" y="535" type="curve" smooth="yes"/>
      <point x="223" y="440"/>
      <point x="160" y="370"/>
      <point x="41" y="370" type="curve" smooth="yes"/>
      <point x="23" y="370" type="line"/>
      <point x="23" y="469" type="line"/>
    </contour>
  </outline>
</glyph>
<glyph name="acutecmb" format="2">
  <advance width="600"/>
  <unicode hex="0301"/>
  <outline>
    <contour>
      <point x="273" y="700" type="line"/>
      <point x="406" y="700" type="line"/>
      <point x="318" y="564" type="line"/>
      <point x="213" y="564" type="line"/>
    </contour>
  </outline>
</glyph>
<glyph name="circumflexcmb" format="2">
  <advance width="600"/>
  <unicode hex="0302"/>
  <outline>
    <contour>
      <point x="233" y="700" type="line"/>
      <point x="123" y="564" type="line"/>
      <point x="237" y="564" type="line"/>
      <point x="353" y="662" type="line"/>
      <point x="247" y="662" type="line"/>
      <point x="363" y="564" type="line"/>
      <point x="477" y="564" type="line"/>
      <point x="367" y="700" type="line"/>
    </contour>
  </outline>
</glyph>
<glyph name="hookabovecmb" format="2">
  <advance width="600"/>
  <unicode hex="0309"/>
  <outline>
    <contour>
      <point x="305" y="667" type="curve" smooth="yes"/>
      <point x="305.0" y="641.0"/>
      <point x="280" y="624"/>
      <point x="236" y="614.0" type="curve"/>
      <point x="288" y="554.0" type="line"/>
      <point x="340" y="567"/>
      <point x="389" y="605.0"/>
      <point x="389" y="670" type="curve" smooth="yes"/>
      <point x="389" y="729"/>
      <point x="348" y="779"/>
      <point x="280" y="779" type="curve" smooth="yes"/>
      <point x="231" y="779"/>
      <point x="188" y="752"/>
      <point x="166" y="711" type="curve"/>
      <point x="225" y="665" type="line"/>
      <point x="233" y="682"/>
      <point x="250" y="698"/>
      <point x="272" y="698" type="curve" smooth="yes"/>
      <point x="291.0" y="698.0"/>
      <point x="305" y="686"/>
    </contour>
  </outline>
</glyph>
<glyph name="ringabovecmb" format="2">
  <advance width="600"/>
  <unicode hex="030A"/>
  <outline>
    <contour>
      <point x="410" y="666" type="curve" smooth="yes"/>
      <point x="410" y="726"/>
      <point x="362" y="774"/>
      <point x="301" y="774" type="curve" smooth="yes"/>
      <point x="240" y="774"/>
      <point x="192" y="726"/>
      <point x="192" y="666" type="curve" smooth="yes"/>
      <point x="192" y="606"/>
      <point x="240" y="558"/>
      <point x="301" y="558" type="curve" smooth="yes"/>
      <point x="362" y="558"/>
      <point x="410" y="606"/>
    </contour>
    <contour>
      <point x="337" y="666" type="curve" smooth="yes"/>
      <point x="337" y="646"/>
      <point x="323" y="628"/>
      <point x="301" y="628" type="curve" smooth="yes"/>
      <point x="279" y="628"/>
      <point x="265" y="646"/>
      <point x="265" y="666" type="curve" smooth="yes"/>
      <point x="265" y="686"/>
      <point x="279" y="704"/>
      <point x="301" y="704" type="curve" smooth="yes"/>
      <point x="323" y="704"/>
      <point x="337" y="686"/>
    </contour>
  </outline>
</glyph>
<glyph name="hungarumlautcmb" format="2">
  <advance width="600"/>
  <unicode hex="030B"/>
  <guideline x="266" y="570" angle="90" name="center" identifier="qqE52RWXT3"/>
  <outline>
    <contour>
      <point x="181" y="700" type="line"/>
      <point x="132" y="564" type="line"/>
      <point x="239" y="564" type="line"/>
      <point x="310" y="700" type="line"/>
    </contour>
    <contour>
      <point x="341" y="700" type="line"/>
      <point x="292" y="564" type="line"/>
      <point x="399" y="564" type="line"/>
      <point x="470" y="700" type="line"/>
    </contour>
  </outline>
</glyph>
<glyph name="commaaccentbelowcmb" format="2">
  <advance width="600"/>
  <unicode hex="0326"/>
  <outline>
    <contour>
      <point x="228" y="-64" type="line"/>
      <point x="228" y="-200" type="line"/>
      <point x="294" y="-200" type="line"/>
      <point x="294" y="-202" type="line" smooth="yes"/>
      <point x="294.0" y="-241.0"/>
      <point x="273" y="-271"/>
      <point x="216" y="-271" type="curve"/>
      <point x="216" y="-334" type="line"/>
      <point x="325" y="-334"/>
      <point x="372.0" y="-273.0"/>
      <point x="372" y="-202" type="curve" smooth="yes"/>
      <point x="372" y="-64" type="line"/>
    </contour>
  </outline>
</glyph>
<glyph name="lmacrondot" format="2">
  <advance width="250"/>
  <unicode hex="1E39"/>
  <outline>
    <contour>
      <point x="-10" y="760" type="line"/>
      <point x="260" y="760" type="line"/>
      <point x="260" y="861" type="line"/>
      <point x="-10" y="861" type="line"/>
    </contour>
    <component base="l"/>
    <component base="dotbelowcmb" xOffset="-175"/>
  </outline>
</glyph>
<glyph name="rlinebelow" format="2">
  <advance width="375"/>
  <unicode hex="1E5F"/>
  <outline>
    <contour>
      <point x="-10" y="-77" type="line"/>
      <point x="260" y="-77" type="line"/>
      <point x="260" y="-178" type="line"/>
      <point x="-10" y="-178" type="line"/>
    </contour>
    <component base="r"/>
  </outline>
</glyph>
<glyph name="quotedblright" format="2">
  <advance width="439"/>
  <unicode hex="201D"/>
  <outline>
    <contour>
      <point x="48" y="700" type="line"/>
      <point x="48" y="551" type="line"/>
      <point x="116" y="551" type="line"/>
      <point x="116" y="539" type="line" smooth="yes"/>
      <point x="116" y="491"/>
      <point x="95" y="454"/>
      <point x="28" y="454" type="curve"/>
      <point x="28" y="390" type="line"/>
      <point x="148" y="390"/>
      <point x="195" y="458"/>
      <point x="195" y="539" type="curve" smooth="yes"/>
      <point x="195" y="700" type="line"/>
    </contour>
    <contour>
      <point x="244" y="700" type="line"/>
      <point x="244" y="551" type="line"/>
      <point x="312" y="551" type="line"/>
      <point x="312" y="539" type="line" smooth="yes"/>
      <point x="312" y="491"/>
      <point x="291" y="454"/>
      <point x="224" y="454" type="curve"/>
      <point x="224" y="390" type="line"/>
      <point x="344" y="390"/>
      <point x="391" y="458"/>
      <point x="391" y="539" type="curve" smooth="yes"/>
      <point x="391" y="700" type="line"/>
    </contour>
  </outline>
</glyph>
<glyph name="dagger" format="2">
  <advance width="342"/>
  <unicode hex="2020"/>
  <outline>
    <contour>
      <point x="115" y="280" type="line"/>
      <point x="227" y="280" type="line"/>
      <point x="227" y="700" type="line"/>
      <point x="115" y="700" type="line"/>
    </contour>
    <contour>
      <point x="16" y="598" type="line"/>
      <point x="16" y="506" type="line"/>
      <point x="326" y="506" type="line"/>
      <point x="326" y="598" type="line"/>
    </contour>
  </outline>
</glyph>
<glyph name="second" format="2">
  <advance width="422"/>
  <unicode hex="2033"/>
  <outline>
    <contour>
      <point x="60" y="700" type="line"/>
      <point x="4" y="363" type="line"/>
      <point x="112" y="363" type="line"/>
      <point x="220" y="700" type="line"/>
    </contour>
    <contour>
      <point x="263" y="700" type="line"/>
      <point x="207" y="363" type="line"/>
      <point x="315" y="363" type="line"/>
      <point x="423" y="700" type="line"/>
    </contour>
  </outline>
</glyph>
<glyph name="fraction" format="2">
  <advance width="126"/>
  <unicode hex="2044"/>
  <outline>
    <contour>
      <point x="-249" y="0" type="line"/>
      <point x="-129" y="0" type="line"/>
      <point x="375" y="700" type="line"/>
      <point x="255" y="700" type="line"/>
    </contour>
  </outline>
</glyph>
<glyph name="newsheqel" format="2">
  <advance width="737"/>
  <unicode hex="20AA"/>
  <outline>
    <contour>
      <point x="321" y="700" type="line" smooth="yes"/>
      <point x="449" y="700"/>
      <point x="501" y="641"/>
      <point x="501" y="519" type="curve" smooth="yes"/>
      <point x="501" y="158" type="line"/>
      <point x="389" y="158" type="line"/>
      <point x="389" y="518" type="line" smooth="yes"/>
      <point x="389" y="559"/>
      <point x="367" y="591"/>
      <point x="319" y="591" type="curve" smooth="yes"/>
      <point x="195" y="591" type="line"/>
      <point x="195" y="0" type="line"/>
      <point x="81" y="0" type="line"/>
      <point x="81" y="700" type="line"/>
    </contour>
    <contour>
      <point x="416" y="0" type="line" smooth="yes"/>
      <point x="288" y="0"/>
      <point x="236" y="59"/>
      <point x="236" y="181" type="curve" smooth="yes"/>
      <point x="236" y="542" type="line"/>
      <point x="348" y="542" type="line"/>
      <point x="348" y="182" type="line" smooth="yes"/>
      <point x="348" y="141"/>
      <point x="370" y="109"/>
      <point x="418" y="109" type="curve" smooth="yes"/>
      <point x="542" y="109" type="line"/>
      <point x="542" y="700" type="line"/>
      <point x="656" y="700" type="line"/>
      <point x="656" y="0" type="line"/>
    </contour>
  </outline>
</glyph>
<glyph name="guarani" format="2">
  <advance width="598"/>
  <unicode hex="20B2"/>
  <outline>
    <contour>
      <point x="292" y="712" type="curve" smooth="yes"/>
      <point x="124" y="712"/>
      <point x="25" y="571"/>
      <point x="25" y="350" type="curve" smooth="yes"/>
      <point x="25" y="129"/>
      <point x="120" y="-12"/>
      <point x="272" y="-12" type="curve" smooth="yes"/>
      <point x="363" y="-12"/>
      <point x="417" y="50"/>
      <point x="441" y="144" type="curve"/>
      <point x="411" y="144" type="line"/>
      <point x="411" y="0" type="line"/>
      <point x="528" y="0" type="line"/>
      <point x="528" y="382" type="line"/>
      <point x="360" y="382" type="line"/>
      <point x="360" y="269" type="line"/>
      <point x="448" y="269" type="line"/>
      <point x="417" y="311" type="line"/>
      <point x="417" y="290" type="line" smooth="yes"/>
      <point x="417" y="166"/>
      <point x="361" y="105"/>
      <point x="296" y="105" type="curve" smooth="yes"/>
      <point x="218" y="105"/>
      <point x="165" y="174"/>
      <point x="165" y="350" type="curve" smooth="yes"/>
      <point x="165" y="526"/>
      <point x="217" y="594"/>
      <point x="293" y="594" type="curve" smooth="yes"/>
      <point x="357" y="594"/>
      <point x="385" y="547"/>
      <point x="398" y="470" type="curve"/>
      <point x="523" y="496" type="line"/>
      <point x="501" y="623"/>
      <point x="429" y="712"/>
    </contour>
    <contour>
      <point x="234" y="-112" type="line"/>
      <point x="328" y="-112" type="line"/>
      <point x="328" y="797" type="line"/>
      <point x="234" y="797" type="line"/>
    </contour>
  </outline>
</glyph>
<glyph name="cedi" format="2">
  <advance width="577"/>
  <unicode hex="20B5"/>
  <outline>
    <contour>
      <point x="546" y="490" type="line"/>
      <point x="523" y="620"/>
      <point x="437" y="712"/>
      <point x="307" y="712" type="curve" smooth="yes"/>
      <point x="129" y="712"/>
      <point x="34" y="569"/>
      <point x="34" y="350" type="curve" smooth="yes"/>
      <point x="34" y="131"/>
      <point x="129" y="-12"/>
      <point x="307" y="-12" type="curve" smooth="yes"/>
      <point x="437" y="-12"/>
      <point x="526" y="81"/>
      <point x="547" y="212" type="curve"/>
      <point x="419" y="237" type="line"/>
      <point x="402" y="146"/>
      <point x="365" y="108"/>
      <point x="307" y="108" type="curve" smooth="yes"/>
      <point x="226" y="108"/>
      <point x="174" y="176"/>
      <point x="174" y="350" type="curve" smooth="yes"/>
      <point x="174" y="524"/>
      <point x="226" y="592"/>
      <point x="307" y="592" type="curve" smooth="yes"/>
      <point x="365" y="592"/>
      <point x="401" y="556"/>
      <point x="418" y="465" type="curve"/>
    </contour>
    <contour>
      <point x="252" y="-112" type="line"/>
      <point x="346" y="-112" type="line"/>
      <point x="346" y="797" type="line"/>
      <point x="252" y="797" type="line"/>
    </contour>
  </outline>
</glyph>
<glyph name="lessequal" format="2">
  <advance width="576"/>
  <unicode hex="2264"/>
  <outline>
    <contour>
      <point x="532" y="0" type="line"/>
      <point x="532" y="120" type="line"/>
      <point x="44" y="120" type="line"/>
      <point x="44" y="0" type="line"/>
    </contour>
    <contour>
      <point x="44" y="483" type="line"/>
      <point x="44" y="358" type="line"/>
      <point x="532" y="158" type="line"/>
      <point x="532" y="285" type="line"/>
      <point x="112" y="455" type="line"/>
      <point x="112" y="386" type="line"/>
      <point x="532" y="556" type="line"/>
      <point x="532" y="683" type="line"/>
    </contour>
  </outline>
</glyph>
<glyph name="threesanscircled" format="2">
  <advance width="828"/>
  <unicode hex="2782"/>
  <outline>
    <contour>
      <point x="254" y="292" type="line"/>
      <point x="248" y="196"/>
      <point x="320" y="148"/>
      <point x="416" y="148" type="curve" smooth="yes"/>
      <point x="519" y="148"/>
      <point x="573" y="200"/>
      <point x="573" y="270" type="curve" smooth="yes"/>
      <point x="573" y="319"/>
      <point x="544" y="348"/>
      <point x="500" y="359" type="curve"/>
      <point x="532" y="369"/>
      <point x="563" y="392"/>
      <point x="563" y="439" type="curve" smooth="yes"/>
      <point x="563" y="497"/>
      <point x="521" y="552"/>
      <point x="414" y="552" type="curve" smooth="yes"/>
      <point x="319" y="552"/>
      <point x="251" y="501"/>
      <point x="258" y="410" type="curve"/>
      <point x="369" y="417" type="line"/>
      <point x="365" y="446"/>
      <point x="380" y="467"/>
      <point x="411" y="467" type="curve" smooth="yes"/>
      <point x="432" y="467"/>
      <point x="452" y="455"/>
      <point x="452" y="431" type="curve" smooth="yes"/>
      <point x="452" y="408"/>
      <point x="435" y="395"/>
      <point x="415" y="395" type="curve" smooth="yes"/>
      <point x="381" y="395" type="line"/>
      <point x="381" y="317" type="line"/>
      <point x="415" y="317" type="line" smooth="yes"/>
      <point x="444" y="317"/>
      <point x="462" y="304"/>
      <point x="462" y="277" type="curve" smooth="yes"/>
      <point x="462" y="249"/>
      <point x="445" y="233"/>
      <point x="415" y="233" type="curve" smooth="yes"/>
      <point x="380" y="233"/>
      <point x="360" y="254"/>
      <point x="365" y="285" type="curve"/>
    </contour>
    <component base="circlewhite"/>
  </outline>
</glyph>
<glyph name="fivesanscircled" format="2">
  <advance width="828"/>
  <unicode hex="2784"/>
  <outline>
    <contour>
      <point x="249" y="293" type="line"/>
      <point x="252" y="196"/>
      <point x="313" y="148"/>
      <point x="411" y="148" type="curve" smooth="yes"/>
      <point x="511" y="148"/>
      <point x="562" y="202"/>
      <point x="562" y="288" type="curve" smooth="yes"/>
      <point x="562" y="362"/>
      <point x="522" y="421"/>
      <point x="441" y="421" type="curve" smooth="yes"/>
      <point x="410" y="421"/>
      <point x="386" y="412"/>
      <point x="368" y="398" type="curve"/>
      <point x="372" y="454" type="line"/>
      <point x="550" y="454" type="line"/>
      <point x="550" y="546" type="line"/>
      <point x="281" y="546" type="line"/>
      <point x="263" y="322" type="line"/>
      <point x="368" y="315" type="line"/>
      <point x="375" y="327"/>
      <point x="390" y="339"/>
      <point x="409" y="339" type="curve" smooth="yes"/>
      <point x="437" y="339"/>
      <point x="451" y="313"/>
      <point x="451" y="288" type="curve" smooth="yes"/>
      <point x="451" y="258"/>
      <point x="436" y="233"/>
      <point x="406" y="233" type="curve" smooth="yes"/>
      <point x="380" y="233"/>
      <point x="365" y="252"/>
      <point x="364" y="279" type="curve"/>
    </contour>
    <component base="circlewhite"/>
  </outline>
</glyph>
<glyph name="sevensanscircled" format="2">
  <advance width="828"/>
  <unicode hex="2786"/>
  <outline>
    <contour>
      <point x="263" y="546" type="line"/>
      <point x="263" y="385" type="line"/>
      <point x="364" y="385" type="line"/>
      <point x="364" y="456" type="line"/>
      <point x="460" y="456" type="line"/>
      <point x="381" y="361"/>
      <point x="325" y="270"/>
      <point x="320" y="154" type="curve"/>
      <point x="438" y="154" type="line"/>
      <point x="448" y="285"/>
      <point x="503" y="375"/>
      <point x="589" y="480" type="curve"/>
      <point x="589" y="546" type="line"/>
    </contour>
    <component base="circlewhite"/>
  </outline>
</glyph>
<glyph name="eightsanscircled" format="2">
  <advance width="828"/>
  <unicode hex="2787"/>
  <outline>
    <contour>
      <point x="253" y="269" type="curve" smooth="yes"/>
      <point x="253" y="200"/>
      <point x="312" y="148"/>
      <point x="414" y="148" type="curve" smooth="yes"/>
      <point x="516" y="148"/>
      <point x="575" y="200"/>
      <point x="575" y="269" type="curve" smooth="yes"/>
      <point x="575" y="319"/>
      <point x="544" y="349"/>
      <point x="502" y="363" type="curve"/>
      <point x="536" y="375"/>
      <point x="562" y="401"/>
      <point x="562" y="443" type="curve" smooth="yes"/>
      <point x="562" y="504"/>
      <point x="512" y="552"/>
      <point x="414" y="552" type="curve" smooth="yes"/>
      <point x="316" y="552"/>
      <point x="266" y="504"/>
      <point x="266" y="443" type="curve" smooth="yes"/>
      <point x="266" y="401"/>
      <point x="292" y="375"/>
      <point x="326" y="363" type="curve"/>
      <point x="284" y="349"/>
      <point x="253" y="319"/>
    </contour>
    <contour>
      <point x="467" y="276" type="curve" smooth="yes"/>
      <point x="467" y="247"/>
      <point x="446" y="226"/>
      <point x="414" y="226" type="curve" smooth="yes"/>
      <point x="382" y="226"/>
      <point x="361" y="247"/>
      <point x="361" y="276" type="curve" smooth="yes"/>
      <point x="361" y="305"/>
      <point x="382" y="324"/>
      <point x="414" y="324" type="curve" smooth="yes"/>
      <point x="446" y="324"/>
      <point x="467" y="305"/>
    </contour>
    <contour>
      <point x="457" y="437" type="curve" smooth="yes"/>
      <point x="457" y="416"/>
      <point x="441" y="400"/>
      <point x="414" y="400" type="curve" smooth="yes"/>
      <point x="387" y="400"/>
      <point x="371" y="416"/>
      <point x="371" y="437" type="curve" smooth="yes"/>
      <point x="371" y="458"/>
      <point x="387" y="474"/>
      <point x="414" y="474" type="curve" smooth="yes"/>
      <point x="441" y="474"/>
      <point x="457" y="458"/>
    </contour>
    <component base="circlewhite"/>
  </outline>
</glyph>
<glyph name="tensanscircled" format="2">
  <advance width="828"/>
  <unicode hex="2789"/>
  <outline>
    <contour>
      <point x="250" y="546" type="line"/>
      <point x="250" y="499"/>
      <point x="237" y="479"/>
      <point x="182" y="479" type="curve"/>
      <point x="182" y="395" type="line"/>
      <point x="241" y="395" type="line"/>
      <point x="241" y="154" type="line"/>
      <point x="347" y="154" type="line"/>
      <point x="347" y="546" type="line"/>
    </contour>
    <contour>
      <point x="508" y="551" type="curve" smooth="yes"/>
      <point x="418" y="551"/>
      <point x="365" y="473"/>
      <point x="365" y="349" type="curve" smooth="yes"/>
      <point x="365" y="225"/>
      <point x="418" y="147"/>
      <point x="508" y="147" type="curve" smooth="yes"/>
      <point x="598" y="147"/>
      <point x="651" y="225"/>
      <point x="651" y="349" type="curve" smooth="yes"/>
      <point x="651" y="473"/>
      <point x="598" y="551"/>
    </contour>
    <contour>
      <point x="508" y="237" type="curve" smooth="yes"/>
      <point x="482" y="237"/>
      <point x="470" y="274"/>
      <point x="470" y="349" type="curve" smooth="yes"/>
      <point x="470" y="424"/>
      <point x="482" y="461"/>
      <point x="508" y="461" type="curve" smooth="yes"/>
      <point x="534" y="461"/>
      <point x="546" y="424"/>
      <point x="546" y="349" type="curve" smooth="yes"/>
      <point x="546" y="274"/>
      <point x="534" y="237"/>
    </contour>
    <component base="circlewhite"/>
  </outline>
</glyph>
<glyph name="threesansnegativecircled" format="2">
  <advance width="828"/>
  <unicode hex="278C"/>
  <outline>
    <contour>
      <point x="254" y="292" type="curve"/>
      <point x="365" y="285" type="line"/>
      <point x="360" y="254"/>
      <point x="380" y="233"/>
      <point x="415" y="233" type="curve" smooth="yes"/>
      <point x="445" y="233"/>
      <point x="462" y="249"/>
      <point x="462" y="277" type="curve" smooth="yes"/>
      <point x="462" y="304"/>
      <point x="444" y="317"/>
      <point x="415" y="317" type="curve" smooth="yes"/>
      <point x="381" y="317" type="line"/>
      <point x="381" y="395" type="line"/>
      <point x="415" y="395" type="line" smooth="yes"/>
      <point x="435" y="395"/>
      <point x="452" y="408"/>
      <point x="452" y="431" type="curve" smooth="yes"/>
      <point x="452" y="455"/>
      <point x="432" y="467"/>
      <point x="411" y="467" type="curve" smooth="yes"/>
      <point x="380" y="467"/>
      <point x="365" y="446"/>
      <point x="369" y="417" type="curve"/>
      <point x="258" y="410" type="line"/>
      <point x="251" y="501"/>
      <point x="319" y="552"/>
      <point x="414" y="552" type="curve" smooth="yes"/>
      <point x="521" y="552"/>
      <point x="563" y="497"/>
      <point x="563" y="439" type="curve" smooth="yes"/>
      <point x="563" y="392"/>
      <point x="532" y="369"/>
      <point x="500" y="359" type="curve"/>
      <point x="544" y="348"/>
      <point x="573" y="319"/>
      <point x="573" y="270" type="curve" smooth="yes"/>
      <point x="573" y="200"/>
      <point x="519" y="148"/>
      <point x="416" y="148" type="curve" smooth="yes"/>
      <point x="320" y="148"/>
      <point x="248" y="196"/>
    </contour>
    <component base="circleblack"/>
  </outline>
</glyph>
<glyph name="foursansnegativecircled" format="2">
  <advance width="828"/>
  <unicode hex="278D"/>
  <outline>
    <contour>
      <point x="513" y="546" type="line"/>
      <point x="513" y="322" type="line"/>
      <point x="575" y="322" type="line"/>
      <point x="575" y="235" type="line"/>
      <point x="513" y="235" type="line"/>
      <point x="513" y="154" type="line"/>
      <point x="404" y="154" type="line"/>
      <point x="404" y="235" type="line"/>
      <point x="224" y="235" type="line"/>
      <point x="224" y="326" type="line"/>
      <point x="387" y="546" type="line"/>
    </contour>
    <contour>
      <point x="326" y="322" type="line"/>
      <point x="404" y="322" type="line"/>
      <point x="404" y="427" type="line"/>
    </contour>
    <component base="circleblack"/>
  </outline>
</glyph>
<glyph name="ninesansnegativecircled" format="2">
  <advance width="828"/>
  <unicode hex="2792"/>
  <outline>
    <contour>
      <point x="419" y="551" type="curve" smooth="yes"/>
      <point x="479" y="551"/>
      <point x="522" y="527"/>
      <point x="545" y="493" type="curve" smooth="yes"/>
      <point x="569" y="458"/>
      <point x="578" y="421"/>
      <point x="578" y="357" type="curve" smooth="yes"/>
      <point x="578" y="221"/>
      <point x="530" y="147"/>
      <point x="414" y="147" type="curve" smooth="yes"/>
      <point x="330" y="147"/>
      <point x="270" y="196"/>
      <point x="265" y="283" type="curve"/>
      <point x="383" y="268" type="line"/>
      <point x="384" y="243"/>
      <point x="397" y="227"/>
      <point x="418" y="227" type="curve" smooth="yes"/>
      <point x="451" y="227"/>
      <point x="465" y="268"/>
      <point x="467" y="317" type="curve"/>
      <point x="449" y="297"/>
      <point x="421" y="287"/>
      <point x="384" y="287" type="curve" smooth="yes"/>
      <point x="314" y="287"/>
      <point x="264" y="331"/>
      <point x="264" y="411" type="curve" smooth="yes"/>
      <point x="264" y="491"/>
      <point x="314" y="551"/>
    </contour>
    <contour>
      <point x="419" y="362" type="curve" smooth="yes"/>
      <point x="446" y="362"/>
      <point x="464" y="384"/>
      <point x="464" y="416" type="curve" smooth="yes"/>
      <point x="464" y="448"/>
      <point x="446" y="470"/>
      <point x="419" y="470" type="curve" smooth="yes"/>
      <point x="392" y="470"/>
      <point x="374" y="448"/>
      <point x="374" y="416" type="curve" smooth="yes"/>
      <point x="374" y="384"/>
      <point x="392" y="362"/>
    </contour>
    <component base="circleblack"/>
  </outline>
</glyph>
<glyph name="R.alt1" format="2">
  <advance width="681"/>
  <guideline x="356" y="830" angle="90.0" name="center" identifier="WNG5VRMWci"/>
  <outline>
    <contour>
      <point x="67" y="700" type="line"/>
      <point x="67" y="0" type="line"/>
      <point x="217" y="0" type="line"/>
      <point x="217" y="700" type="line"/>
    </contour>
    <contour>
      <point x="395" y="399" type="curve" smooth="yes"/>
      <point x="140" y="399" type="line"/>
      <point x="140" y="277" type="line"/>
      <point x="426" y="277" type="line" smooth="yes"/>
      <point x="457" y="277"/>
      <point x="481" y="249"/>
      <point x="483" y="179" type="curve" smooth="yes"/>
      <point x="486" y="84"/>
      <point x="479" y="34"/>
      <point x="509" y="0" type="curve"/>
      <point x="660" y="0" type="line"/>
      <point x="660" y="17" type="line"/>
      <point x="630" y="35"/>
      <point x="636" y="130"/>
      <point x="630" y="210" type="curve" smooth="yes"/>
      <point x="625" y="278"/>
      <point x="584" y="319"/>
      <point x="512" y="333" type="curve"/>
      <point x="512" y="306" type="line"/>
      <point x="603" y="325"/>
      <point x="649" y="383"/>
      <point x="649" y="488" type="curve" smooth="yes"/>
      <point x="649" y="620"/>
      <point x="567" y="700"/>
      <point x="412" y="700" type="curve" smooth="yes"/>
      <point x="145" y="700" type="line"/>
      <point x="145" y="577" type="line"/>
      <point x="395" y="577" type="line" smooth="yes"/>
      <point x="459" y="577"/>
      <point x="495" y="545"/>
      <point x="495" y="488" type="curve" smooth="yes"/>
      <point x="495" y="431"/>
      <point x="459" y="399"/>
    </contour>
  </outline>
</glyph>
<glyph name="acutecmb.uc" format="2">
  <advance width="600"/>
  <outline>
    <contour>
      <point x="287" y="892" type="line"/>
      <point x="428" y="892" type="line"/>
      <point x="319" y="760" type="line"/>
      <point x="209" y="760" type="line"/>
    </contour>
  </outline>
</glyph>
<glyph name="aogonek.alt1" format="2">
  <advance width="535"/>
  <outline>
    <contour>
      <point x="416" y="-203" type="curve" smooth="yes"/>
      <point x="439" y="-203"/>
      <point x="474" y="-200"/>
      <point x="499" y="-193" type="curve"/>
      <point x="499" y="-106" type="line"/>
      <point x="479" y="-111"/>
      <point x="463" y="-114"/>
      <point x="445" y="-114" type="curve" smooth="yes"/>
      <point x="415" y="-114"/>
      <point x="400" y="-104"/>
      <point x="400" y="-85" type="curve" smooth="yes"/>
      <point x="400" y="-56"/>
      <point x="434" y="-30"/>
      <point x="486" y="0" type="curve"/>
      <point x="365" y="0" type="line"/>
      <point x="330" y="-23"/>
      <point x="287" y="-62"/>
      <point x="287" y="-116" type="curve" smooth="yes"/>
      <point x="287" y="-170"/>
      <point x="331" y="-203"/>
    </contour>
    <contour>
      <point x="352" y="100" type="line"/>
      <point x="352" y="65"/>
      <point x="353" y="31"/>
      <point x="360" y="-10" type="curve"/>
      <point x="486" y="0" type="line"/>
      <point x="480" y="36"/>
      <point x="478" y="67"/>
      <point x="478" y="114" type="curve" smooth="yes"/>
      <point x="478" y="345" type="line" smooth="yes"/>
      <point x="478" y="451"/>
      <point x="408" y="512"/>
      <point x="265" y="512" type="curve" smooth="yes"/>
      <point x="115" y="512"/>
      <point x="53" y="426"/>
      <point x="48" y="349" type="curve"/>
      <point x="188" y="325" type="line"/>
      <point x="189" y="372"/>
      <point x="206" y="405"/>
      <point x="265" y="405" type="curve" smooth="yes"/>
      <point x="321" y="405"/>
      <point x="341" y="379"/>
      <point x="341" y="335" type="curve" smooth="yes"/>
      <point x="341" y="185" type="line" smooth="yes"/>
      <point x="341" y="130"/>
      <point x="293" y="91"/>
      <point x="237" y="91" type="curve" smooth="yes"/>
      <point x="192" y="91"/>
      <point x="167" y="115"/>
      <point x="167" y="148" type="curve" smooth="yes"/>
      <point x="167" y="184"/>
      <point x="194" y="203"/>
      <point x="257" y="210" type="curve" smooth="yes"/>
      <point x="411" y="228" type="line"/>
      <point x="411" y="322" type="line"/>
      <point x="199" y="298" type="line" smooth="yes"/>
      <point x="95" y="286"/>
      <point x="28" y="237"/>
      <point x="28" y="146" type="curve" smooth="yes"/>
      <point x="28" y="49"/>
      <point x="99" y="-12"/>
      <point x="207" y="-12" type="curve" smooth="yes"/>
      <point x="295" y="-12"/>
      <point x="352" y="30"/>
      <point x="387" y="100" type="curve"/>
    </contour>
  </outline>
</glyph>
<glyph name="backslash.uc" format="2">
  <advance width="453"/>
  <outline>
    <contour>
      <point x="130" y="745" type="line"/>
      <point x="485" y="-83" type="line"/>
      <point x="335" y="-83" type="line"/>
      <point x="-20" y="745" type="line"/>
    </contour>
  </outline>
</glyph>
<glyph name="caroncmb.uc" format="2">
  <advance width="600"/>
  <outline>
    <contour>
      <point x="110" y="892" type="line"/>
      <point x="230" y="760" type="line"/>
      <point x="370" y="760" type="line"/>
      <point x="490" y="892" type="line"/>
      <point x="368" y="892" type="line"/>
      <point x="247" y="804" type="line"/>
      <point x="353" y="804" type="line"/>
      <point x="232" y="892" type="line"/>
    </contour>
  </outline>
</glyph>
<glyph name="currency.tab" format="2">
  <advance width="600"/>
  <outline>
    <contour>
      <point x="300" y="234" type="curve" smooth="yes"/>
      <point x="239" y="234"/>
      <point x="194" y="281"/>
      <point x="194" y="345" type="curve" smooth="yes"/>
      <point x="194" y="409"/>
      <point x="239" y="456"/>
      <point x="300" y="456" type="curve" smooth="yes"/>
      <point x="361" y="456"/>
      <point x="406" y="409"/>
      <point x="406" y="345" type="curve" smooth="yes"/>
      <point x="406" y="281"/>
      <point x="361" y="234"/>
    </contour>
    <contour>
      <point x="300" y="122" type="curve" smooth="yes"/>
      <point x="423" y="122"/>
      <point x="520" y="221"/>
      <point x="520" y="345" type="curve" smooth="yes"/>
      <point x="520" y="469"/>
      <point x="423" y="568"/>
      <point x="300" y="568" type="curve" smooth="yes"/>
      <point x="177" y="568"/>
      <point x="80" y="469"/>
      <point x="80" y="345" type="curve" smooth="yes"/>
      <point x="80" y="221"/>
      <point x="177" y="122"/>
    </contour>
    <contour>
      <point x="214" y="180" type="line"/>
      <point x="135" y="259" type="line"/>
      <point x="33" y="157" type="line"/>
      <point x="112" y="78" type="line"/>
    </contour>
    <contour>
      <point x="465" y="431" type="line"/>
      <point x="567" y="533" type="line"/>
      <point x="488" y="612" type="line"/>
      <point x="386" y="510" type="line"/>
    </contour>
    <contour>
      <point x="135" y="431" type="line"/>
      <point x="214" y="510" type="line"/>
      <point x="112" y="612" type="line"/>
      <point x="33" y="533" type="line"/>
    </contour>
    <contour>
      <point x="488" y="78" type="line"/>
      <point x="567" y="157" type="line"/>
      <point x="465" y="259" type="line"/>
      <point x="386" y="180" type="line"/>
    </contour>
  </outline>
</glyph>
<glyph name="dotaccentcmb.uc" format="2">
  <advance width="600"/>
  <outline>
    <contour>
      <point x="225" y="899" type="line"/>
      <point x="225" y="760" type="line"/>
      <point x="375" y="760" type="line"/>
      <point x="375" y="899" type="line"/>
    </contour>
  </outline>
</glyph>
<glyph name="dotbelowcmb.uc" format="2">
  <advance width="600"/>
  <outline>
    <contour>
      <point x="225" y="-64" type="line"/>
      <point x="225" y="-203" type="line"/>
      <point x="375" y="-203" type="line"/>
      <point x="375" y="-64" type="line"/>
    </contour>
  </outline>
</glyph>
<glyph name="eight.den" format="2">
  <advance width="360"/>
  <outline>
    <contour>
      <point x="180" y="246" type="curve" smooth="yes"/>
      <point x="153" y="246"/>
      <point x="137" y="262"/>
      <point x="137" y="283" type="curve" smooth="yes"/>
      <point x="137" y="304"/>
      <point x="153" y="320"/>
      <point x="180" y="320" type="curve" smooth="yes"/>
      <point x="207" y="320"/>
      <point x="223" y="304"/>
      <point x="223" y="283" type="curve" smooth="yes"/>
      <point x="223" y="262"/>
      <point x="207" y="246"/>
    </contour>
    <contour>
      <point x="111" y="204" type="curve"/>
      <point x="111" y="214" type="line"/>
      <point x="60" y="204"/>
      <point x="19" y="172"/>
      <point x="19" y="115" type="curve" smooth="yes"/>
      <point x="19" y="46"/>
      <point x="78" y="-6"/>
      <point x="180" y="-6" type="curve" smooth="yes"/>
      <point x="282" y="-6"/>
      <point x="341" y="46"/>
      <point x="341" y="115" type="curve" smooth="yes"/>
      <point x="341" y="172"/>
      <point x="300" y="204"/>
      <point x="249" y="214" type="curve"/>
      <point x="249" y="204" type="line"/>
      <point x="292" y="212"/>
      <point x="328" y="239"/>
      <point x="328" y="289" type="curve" smooth="yes"/>
      <point x="328" y="350"/>
      <point x="278" y="398"/>
      <point x="180" y="398" type="curve" smooth="yes"/>
      <point x="82" y="398"/>
      <point x="32" y="350"/>
      <point x="32" y="289" type="curve" smooth="yes"/>
      <point x="32" y="239"/>
      <point x="68" y="212"/>
    </contour>
    <contour>
      <point x="180" y="170" type="curve" smooth="yes"/>
      <point x="212" y="170"/>
      <point x="233" y="151"/>
      <point x="233" y="122" type="curve" smooth="yes"/>
      <point x="233" y="93"/>
      <point x="212" y="72"/>
      <point x="180" y="72" type="curve" smooth="yes"/>
      <point x="148" y="72"/>
      <point x="127" y="93"/>
      <point x="127" y="122" type="curve" smooth="yes"/>
      <point x="127" y="151"/>
      <point x="148" y="170"/>
    </contour>
  </outline>
</glyph>
<glyph name="eight.sup" format="2">
  <advance width="360"/>
  <outline>
    <contour>
      <point x="180" y="654" type="curve" smooth="yes"/>
      <point x="153" y="654"/>
      <point x="137" y="670"/>
      <point x="137" y="691" type="curve" smooth="yes"/>
      <point x="137" y="712"/>
      <point x="153" y="728"/>
      <point x="180" y="728" type="curve" smooth="yes"/>
      <point x="207" y="728"/>
      <point x="223" y="712"/>
      <point x="223" y="691" type="curve" smooth="yes"/>
      <point x="223" y="670"/>
      <point x="207" y="654"/>
    </contour>
    <contour>
      <point x="111" y="612" type="curve"/>
      <point x="111" y="622" type="line"/>
      <point x="60" y="612"/>
      <point x="19" y="580"/>
      <point x="19" y="523" type="curve" smooth="yes"/>
      <point x="19" y="454"/>
      <point x="78" y="402"/>
      <point x="180" y="402" type="curve" smooth="yes"/>
      <point x="282" y="402"/>
      <point x="341" y="454"/>
      <point x="341" y="523" type="curve" smooth="yes"/>
      <point x="341" y="580"/>
      <point x="300" y="612"/>
      <point x="249" y="622" type="curve"/>
      <point x="249" y="612" type="line"/>
      <point x="292" y="620"/>
      <point x="328" y="647"/>
      <point x="328" y="697" type="curve" smooth="yes"/>
      <point x="328" y="758"/>
      <point x="278" y="806"/>
      <point x="180" y="806" type="curve" smooth="yes"/>
      <point x="82" y="806"/>
      <point x="32" y="758"/>
      <point x="32" y="697" type="curve" smooth="yes"/>
      <point x="32" y="647"/>
      <point x="68" y="620"/>
    </contour>
    <contour>
      <point x="180" y="578" type="curve" smooth="yes"/>
      <point x="212" y="578"/>
      <point x="233" y="559"/>
      <point x="233" y="530" type="curve" smooth="yes"/>
      <point x="233" y="501"/>
      <point x="212" y="480"/>
      <point x="180" y="480" type="curve" smooth="yes"/>
      <point x="148" y="480"/>
      <point x="127" y="501"/>
      <point x="127" y="530" type="curve" smooth="yes"/>
      <point x="127" y="559"/>
      <point x="148" y="578"/>
    </contour>
  </outline>
</glyph>
<glyph name="eight.tab" format="2">
  <advance width="600"/>
  <outline>
    <contour>
      <point x="300" y="424" type="curve" smooth="yes"/>
      <point x="237" y="424"/>
      <point x="193" y="460"/>
      <point x="193" y="513" type="curve" smooth="yes"/>
      <point x="193" y="566"/>
      <point x="237" y="602"/>
      <point x="300" y="602" type="curve" smooth="yes"/>
      <point x="363" y="602"/>
      <point x="407" y="566"/>
      <point x="407" y="513" type="curve" smooth="yes"/>
      <point x="407" y="460"/>
      <point x="363" y="424"/>
    </contour>
    <contour>
      <point x="201" y="366" type="curve"/>
      <point x="201" y="384" type="line"/>
      <point x="112" y="366"/>
      <point x="36" y="309"/>
      <point x="36" y="204" type="curve" smooth="yes"/>
      <point x="36" y="82"/>
      <point x="140" y="-12"/>
      <point x="300" y="-12" type="curve" smooth="yes"/>
      <point x="460" y="-12"/>
      <point x="564" y="82"/>
      <point x="564" y="204" type="curve" smooth="yes"/>
      <point x="564" y="309"/>
      <point x="488" y="366"/>
      <point x="399" y="384" type="curve"/>
      <point x="399" y="366" type="line"/>
      <point x="473" y="379"/>
      <point x="545" y="426"/>
      <point x="545" y="519" type="curve" smooth="yes"/>
      <point x="545" y="630"/>
      <point x="444" y="712"/>
      <point x="300" y="712" type="curve" smooth="yes"/>
      <point x="156" y="712"/>
      <point x="55" y="630"/>
      <point x="55" y="519" type="curve" smooth="yes"/>
      <point x="55" y="426"/>
      <point x="127" y="379"/>
    </contour>
    <contour>
      <point x="300" y="319" type="curve" smooth="yes"/>
      <point x="372" y="319"/>
      <point x="422" y="274"/>
      <point x="422" y="210" type="curve" smooth="yes"/>
      <point x="422" y="146"/>
      <point x="372" y="100"/>
      <point x="300" y="100" type="curve" smooth="yes"/>
      <point x="228" y="100"/>
      <point x="178" y="146"/>
      <point x="178" y="210" type="curve" smooth="yes"/>
      <point x="178" y="274"/>
      <point x="228" y="319"/>
    </contour>
  </outline>
</glyph>
<glyph name="endash.uc" format="2">
  <advance width="684"/>
  <outline>
    <contour>
      <point x="51" y="276" type="line"/>
      <point x="633" y="276" type="line"/>
      <point x="633" y="396" type="line"/>
      <point x="51" y="396" type="line"/>
    </contour>
  </outline>
</glyph>
<glyph name="equal.tab" format="2">
  <advance width="600"/>
  <outline>
    <contour>
      <point x="56" y="288" type="line"/>
      <point x="56" y="168" type="line"/>
      <point x="544" y="168" type="line"/>
      <point x="544" y="288" type="line"/>
    </contour>
    <contour>
      <point x="56" y="512" type="line"/>
      <point x="56" y="392" type="line"/>
      <point x="544" y="392" type="line"/>
      <point x="544" y="512" type="line"/>
    </contour>
  </outline>
</glyph>
<glyph name="five.den" format="2">
  <advance width="346"/>
  <outline>
    <contour>
      <point x="18" y="139" type="line"/>
      <point x="21" y="42"/>
      <point x="82" y="-6"/>
      <point x="180" y="-6" type="curve" smooth="yes"/>
      <point x="280" y="-6"/>
      <point x="331" y="48"/>
      <point x="331" y="134" type="curve" smooth="yes"/>
      <point x="331" y="208"/>
      <point x="291" y="267"/>
      <point x="210" y="267" type="curve" smooth="yes"/>
      <point x="150" y="267"/>
      <point x="116" y="233"/>
      <point x="103" y="198" type="curve"/>
      <point x="133" y="198" type="line"/>
      <point x="147" y="370" type="line"/>
      <point x="95" y="300" type="line"/>
      <point x="319" y="300" type="line"/>
      <point x="319" y="392" type="line"/>
      <point x="50" y="392" type="line"/>
      <point x="32" y="168" type="line"/>
      <point x="137" y="161" type="line"/>
      <point x="144" y="173"/>
      <point x="159" y="185"/>
      <point x="178" y="185" type="curve" smooth="yes"/>
      <point x="206" y="185"/>
      <point x="220" y="159"/>
      <point x="220" y="134" type="curve" smooth="yes"/>
      <point x="220" y="104"/>
      <point x="205" y="79"/>
      <point x="175" y="79" type="curve" smooth="yes"/>
      <point x="149" y="79"/>
      <point x="134" y="98"/>
      <point x="133" y="125" type="curve"/>
    </contour>
  </outline>
</glyph>
<glyph name="five.num" format="2">
  <advance width="346"/>
  <outline>
    <contour>
      <point x="18" y="447" type="line"/>
      <point x="21" y="350"/>
      <point x="82" y="302"/>
      <point x="180" y="302" type="curve" smooth="yes"/>
      <point x="280" y="302"/>
      <point x="331" y="356"/>
      <point x="331" y="442" type="curve" smooth="yes"/>
      <point x="331" y="516"/>
      <point x="291" y="575"/>
      <point x="210" y="575" type="curve" smooth="yes"/>
      <point x="150" y="575"/>
      <point x="116" y="541"/>
      <point x="103" y="506" type="curve"/>
      <point x="133" y="506" type="line"/>
      <point x="147" y="678" type="line"/>
      <point x="95" y="608" type="line"/>
      <point x="319" y="608" type="line"/>
      <point x="319" y="700" type="line"/>
      <point x="50" y="700" type="line"/>
      <point x="32" y="476" type="line"/>
      <point x="137" y="469" type="line"/>
      <point x="144" y="481"/>
      <point x="159" y="493"/>
      <point x="178" y="493" type="curve" smooth="yes"/>
      <point x="206" y="493"/>
      <point x="220" y="467"/>
      <point x="220" y="442" type="curve" smooth="yes"/>
      <point x="220" y="412"/>
      <point x="205" y="387"/>
      <point x="175" y="387" type="curve" smooth="yes"/>
      <point x="149" y="387"/>
      <point x="134" y="406"/>
      <point x="133" y="433" type="curve"/>
    </contour>
  </outline>
</glyph>
<glyph name="five.sup" format="2">
  <advance width="347"/>
  <outline>
    <contour>
      <point x="18" y="547" type="line"/>
      <point x="21" y="450"/>
      <point x="82" y="402"/>
      <point x="180" y="402" type="curve" smooth="yes"/>
      <point x="280" y="402"/>
      <point x="331" y="456"/>
      <point x="331" y="542" type="curve" smooth="yes"/>
      <point x="331" y="616"/>
      <point x="291" y="675"/>
      <point x="210" y="675" type="curve" smooth="yes"/>
      <point x="150" y="675"/>
      <point x="116" y="641"/>
      <point x="103" y="606" type="curve"/>
      <point x="133" y="606" type="line"/>
      <point x="147" y="778" type="line"/>
      <point x="95" y="708" type="line"/>
      <point x="319" y="708" type="line"/>
      <point x="319" y="800" type="line"/>
      <point x="50" y="800" type="line"/>
      <point x="32" y="576" type="line"/>
      <point x="137" y="569" type="line"/>
      <point x="144" y="581"/>
      <point x="159" y="593"/>
      <point x="178" y="593" type="curve" smooth="yes"/>
      <point x="206" y="593"/>
      <point x="220" y="567"/>
      <point x="220" y="542" type="curve" smooth="yes"/>
      <point x="220" y="512"/>
      <point x="205" y="487"/>
      <point x="175" y="487" type="curve" smooth="yes"/>
      <point x="149" y="487"/>
      <point x="134" y="506"/>
      <point x="133" y="533" type="curve"/>
    </contour>
  </outline>
</glyph>
<glyph name="four.den" format="2">
  <advance width="387"/>
  <outline>
    <contour>
      <point x="306" y="392" type="line"/>
      <point x="180" y="392" type="line"/>
      <point x="17" y="172" type="line"/>
      <point x="17" y="81" type="line"/>
      <point x="368" y="81" type="line"/>
      <point x="368" y="168" type="line"/>
      <point x="65" y="168" type="line"/>
      <point x="96" y="137" type="line"/>
      <point x="269" y="370" type="line"/>
      <point x="197" y="370" type="line"/>
      <point x="197" y="0" type="line"/>
      <point x="306" y="0" type="line"/>
    </contour>
  </outline>
</glyph>
<glyph name="four.sup" format="2">
  <advance width="387"/>
  <outline>
    <contour>
      <point x="306" y="800" type="line"/>
      <point x="180" y="800" type="line"/>
      <point x="17" y="580" type="line"/>
      <point x="17" y="489" type="line"/>
      <point x="368" y="489" type="line"/>
      <point x="368" y="576" type="line"/>
      <point x="65" y="576" type="line"/>
      <point x="96" y="545" type="line"/>
      <point x="269" y="778" type="line"/>
      <point x="197" y="778" type="line"/>
      <point x="197" y="408" type="line"/>
      <point x="306" y="408" type="line"/>
    </contour>
  </outline>
</glyph>
<glyph name="gravecmb.uc" format="2">
  <advance width="600"/>
  <outline>
    <contour>
      <point x="313" y="892" type="line"/>
      <point x="391" y="760" type="line"/>
      <point x="281" y="760" type="line"/>
      <point x="172" y="892" type="line"/>
    </contour>
  </outline>
</glyph>
<glyph name="guillemetright.uc" format="2">
  <advance width="507"/>
  <outline>
    <contour>
      <point x="213" y="530" type="line"/>
      <point x="351" y="530" type="line"/>
      <point x="491" y="356" type="line"/>
      <point x="491" y="314" type="line"/>
      <point x="351" y="140" type="line"/>
      <point x="213" y="140" type="line"/>
      <point x="390" y="360" type="line"/>
      <point x="390" y="310" type="line"/>
    </contour>
    <contour>
      <point x="16" y="530" type="line"/>
      <point x="154" y="530" type="line"/>
      <point x="294" y="356" type="line"/>
      <point x="294" y="314" type="line"/>
      <point x="154" y="140" type="line"/>
      <point x="16" y="140" type="line"/>
      <point x="193" y="360" type="line"/>
      <point x="193" y="310" type="line"/>
    </contour>
  </outline>
</glyph>
<glyph name="guilsinglright.uc" format="2">
  <advance width="316"/>
  <outline>
    <contour>
      <point x="19" y="530" type="line"/>
      <point x="157" y="530" type="line"/>
      <point x="297" y="356" type="line"/>
      <point x="297" y="314" type="line"/>
      <point x="157" y="140" type="line"/>
      <point x="19" y="140" type="line"/>
      <point x="196" y="360" type="line"/>
      <point x="196" y="310" type="line"/>
    </contour>
  </outline>
</glyph>
<glyph name="horncmb.uc" format="2">
  <advance width="600"/>
  <outline>
    <contour>
      <point x="289" y="791" type="line"/>
      <point x="294" y="774"/>
      <point x="296" y="755"/>
      <point x="296" y="740" type="curve" smooth="yes"/>
      <point x="296" y="707"/>
      <point x="278.0" y="700.0"/>
      <point x="241" y="700" type="curve" smooth="yes"/>
      <point x="164" y="700" type="line"/>
      <point x="164" y="601" type="line"/>
      <point x="251" y="601" type="line" smooth="yes"/>
      <point x="370.0" y="601.0"/>
      <point x="408" y="633"/>
      <point x="408" y="730" type="curve" smooth="yes"/>
      <point x="408" y="751"/>
      <point x="405" y="776"/>
      <point x="400" y="791" type="curve"/>
    </contour>
  </outline>
</glyph>
<glyph name="hungarumlautcmb.uc" format="2">
  <advance width="600"/>
  <outline>
    <contour>
      <point x="171" y="892" type="line"/>
      <point x="315" y="892" type="line"/>
      <point x="230" y="760" type="line"/>
      <point x="117" y="760" type="line"/>
    </contour>
    <contour>
      <point x="344" y="892" type="line"/>
      <point x="488" y="892" type="line"/>
      <point x="403" y="760" type="line"/>
      <point x="290" y="760" type="line"/>
    </contour>
  </outline>
</glyph>
<glyph name="manat.tab" format="2">
  <advance width="600"/>
  <outline>
    <contour>
      <point x="549" y="0" type="line"/>
      <point x="549" y="421" type="line" smooth="yes"/>
      <point x="549" y="555"/>
      <point x="463" y="670"/>
      <point x="300" y="670" type="curve" smooth="yes"/>
      <point x="136" y="670"/>
      <point x="51" y="555"/>
      <point x="51" y="421" type="curve" smooth="yes"/>
      <point x="51" y="0" type="line"/>
      <point x="186" y="0" type="line"/>
      <point x="186" y="414" type="line" smooth="yes"/>
      <point x="186" y="486"/>
      <point x="217" y="540"/>
      <point x="300" y="540" type="curve" smooth="yes"/>
      <point x="383" y="540"/>
      <point x="414" y="486"/>
      <point x="414" y="414" type="curve" smooth="yes"/>
      <point x="414" y="0" type="line"/>
    </contour>
    <contour>
      <point x="238" y="748" type="line"/>
      <point x="238" y="216" type="line"/>
      <point x="362" y="216" type="line"/>
      <point x="362" y="748" type="line"/>
    </contour>
  </outline>
</glyph>
<glyph name="multiply.tab" format="2">
  <advance width="600"/>
  <outline>
    <contour>
      <point x="64" y="185" type="line"/>
      <point x="146" y="103" type="line"/>
      <point x="538" y="495" type="line"/>
      <point x="456" y="577" type="line"/>
    </contour>
    <contour>
      <point x="64" y="495" type="line"/>
      <point x="456" y="103" type="line"/>
      <point x="538" y="185" type="line"/>
      <point x="146" y="577" type="line"/>
    </contour>
  </outline>
</glyph>
<glyph name="nine.den" format="2">
  <advance width="365"/>
  <outline>
    <contour>
      <point x="179" y="398" type="curve" smooth="yes"/>
      <point x="74" y="398"/>
      <point x="24" y="338"/>
      <point x="24" y="258" type="curve" smooth="yes"/>
      <point x="24" y="178"/>
      <point x="74" y="134"/>
      <point x="144" y="134" type="curve" smooth="yes"/>
      <point x="208" y="134"/>
      <point x="244" y="165"/>
      <point x="253" y="222" type="curve"/>
      <point x="228" y="222" type="line"/>
      <point x="228" y="186" type="line" smooth="yes"/>
      <point x="228" y="128"/>
      <point x="216" y="74"/>
      <point x="178" y="74" type="curve" smooth="yes"/>
      <point x="157" y="74"/>
      <point x="144" y="90"/>
      <point x="143" y="115" type="curve"/>
      <point x="25" y="130" type="line"/>
      <point x="30" y="43"/>
      <point x="90" y="-6"/>
      <point x="174" y="-6" type="curve" smooth="yes"/>
      <point x="290" y="-6"/>
      <point x="338" y="68"/>
      <point x="338" y="204" type="curve" smooth="yes"/>
      <point x="338" y="268"/>
      <point x="329" y="305"/>
      <point x="305" y="340" type="curve" smooth="yes"/>
      <point x="282" y="374"/>
      <point x="239" y="398"/>
    </contour>
    <contour>
      <point x="179" y="209" type="curve" smooth="yes"/>
      <point x="152" y="209"/>
      <point x="134" y="231"/>
      <point x="134" y="263" type="curve" smooth="yes"/>
      <point x="134" y="295"/>
      <point x="152" y="317"/>
      <point x="179" y="317" type="curve" smooth="yes"/>
      <point x="206" y="317"/>
      <point x="224" y="295"/>
      <point x="224" y="263" type="curve" smooth="yes"/>
      <point x="224" y="231"/>
      <point x="206" y="209"/>
    </contour>
  </outline>
</glyph>
<glyph name="nine.sub" format="2">
  <advance width="365"/>
  <outline>
    <contour>
      <point x="179" y="296" type="curve" smooth="yes"/>
      <point x="74" y="296"/>
      <point x="24" y="236"/>
      <point x="24" y="156" type="curve" smooth="yes"/>
      <point x="24" y="76"/>
      <point x="74" y="32"/>
      <point x="144" y="32" type="curve" smooth="yes"/>
      <point x="208" y="32"/>
      <point x="244" y="63"/>
      <point x="253" y="120" type="curve"/>
      <point x="228" y="120" type="line"/>
      <point x="228" y="84" type="line" smooth="yes"/>
      <point x="228" y="26"/>
      <point x="216" y="-28"/>
      <point x="178" y="-28" type="curve" smooth="yes"/>
      <point x="157" y="-28"/>
      <point x="144" y="-12"/>
      <point x="143" y="13" type="curve"/>
      <point x="25" y="28" type="line"/>
      <point x="30" y="-59"/>
      <point x="90" y="-108"/>
      <point x="174" y="-108" type="curve" smooth="yes"/>
      <point x="290" y="-108"/>
      <point x="338" y="-34"/>
      <point x="338" y="102" type="curve" smooth="yes"/>
      <point x="338" y="166"/>
      <point x="329" y="203"/>
      <point x="305" y="238" type="curve" smooth="yes"/>
      <point x="282" y="272"/>
      <point x="239" y="296"/>
    </contour>
    <contour>
      <point x="179" y="107" type="curve" smooth="yes"/>
      <point x="152" y="107"/>
      <point x="134" y="129"/>
      <point x="134" y="161" type="curve" smooth="yes"/>
      <point x="134" y="193"/>
      <point x="152" y="215"/>
      <point x="179" y="215" type="curve" smooth="yes"/>
      <point x="206" y="215"/>
      <point x="224" y="193"/>
      <point x="224" y="161" type="curve" smooth="yes"/>
      <point x="224" y="129"/>
      <point x="206" y="107"/>
    </contour>
  </outline>
</glyph>
<glyph name="nine.sup" format="2">
  <advance width="365"/>
  <outline>
    <contour>
      <point x="179" y="806" type="curve" smooth="yes"/>
      <point x="74" y="806"/>
      <point x="24" y="746"/>
      <point x="24" y="666" type="curve" smooth="yes"/>
      <point x="24" y="586"/>
      <point x="74" y="542"/>
      <point x="144" y="542" type="curve" smooth="yes"/>
      <point x="208" y="542"/>
      <point x="244" y="573"/>
      <point x="253" y="630" type="curve"/>
      <point x="228" y="630" type="line"/>
      <point x="228" y="594" type="line" smooth="yes"/>
      <point x="228" y="536"/>
      <point x="216" y="482"/>
      <point x="178" y="482" type="curve" smooth="yes"/>
      <point x="157" y="482"/>
      <point x="144" y="498"/>
      <point x="143" y="523" type="curve"/>
      <point x="25" y="538" type="line"/>
      <point x="30" y="451"/>
      <point x="90" y="402"/>
      <point x="174" y="402" type="curve" smooth="yes"/>
      <point x="290" y="402"/>
      <point x="338" y="476"/>
      <point x="338" y="612" type="curve" smooth="yes"/>
      <point x="338" y="676"/>
      <point x="329" y="713"/>
      <point x="305" y="748" type="curve" smooth="yes"/>
      <point x="282" y="782"/>
      <point x="239" y="806"/>
    </contour>
    <contour>
      <point x="179" y="617" type="curve" smooth="yes"/>
      <point x="152" y="617"/>
      <point x="134" y="639"/>
      <point x="134" y="671" type="curve" smooth="yes"/>
      <point x="134" y="703"/>
      <point x="152" y="725"/>
      <point x="179" y="725" type="curve" smooth="yes"/>
      <point x="206" y="725"/>
      <point x="224" y="703"/>
      <point x="224" y="671" type="curve" smooth="yes"/>
      <point x="224" y="639"/>
      <point x="206" y="617"/>
    </contour>
  </outline>
</glyph>
<glyph name="notequal.tab" format="2">
  <advance width="600"/>
  <outline>
    <contour>
      <point x="80" y="70" type="line"/>
      <point x="204" y="70" type="line"/>
      <point x="520" y="610" type="line"/>
      <point x="396" y="610" type="line"/>
    </contour>
    <contour>
      <point x="544" y="392" type="line"/>
      <point x="544" y="512" type="line"/>
      <point x="56" y="512" type="line"/>
      <point x="56" y="392" type="line"/>
    </contour>
    <contour>
      <point x="544" y="168" type="line"/>
      <point x="544" y="288" type="line"/>
      <point x="56" y="288" type="line"/>
      <point x="56" y="168" type="line"/>
    </contour>
  </outline>
</glyph>
<glyph name="one.num" format="2">
  <advance width="285"/>
  <outline>
    <contour>
      <point x="117" y="700" type="line"/>
      <point x="117" y="632"/>
      <point x="98" y="611"/>
      <point x="12" y="611" type="curve"/>
      <point x="12" y="527" type="line"/>
      <point x="171" y="527" type="line"/>
      <point x="108" y="601" type="line"/>
      <point x="108" y="308" type="line"/>
      <point x="218" y="308" type="line"/>
      <point x="218" y="700" type="line"/>
    </contour>
  </outline>
</glyph>
<glyph name="one.sub" format="2">
  <advance width="280"/>
  <outline>
    <contour>
      <point x="116" y="290" type="line"/>
      <point x="116" y="222"/>
      <point x="97" y="201"/>
      <point x="11" y="201" type="curve"/>
      <point x="11" y="117" type="line"/>
      <point x="170" y="117" type="line"/>
      <point x="107" y="191" type="line"/>
      <point x="107" y="-102" type="line"/>
      <point x="217" y="-102" type="line"/>
      <point x="217" y="290" type="line"/>
    </contour>
  </outline>
</glyph>
<glyph name="period.tab" format="2">
  <advance width="600"/>
  <outline>
    <contour>
      <point x="225" y="179" type="line"/>
      <point x="225" y="0" type="line"/>
      <point x="376" y="0" type="line"/>
      <point x="376" y="179" type="line"/>
    </contour>
  </outline>
</glyph>
<glyph name="seven.sup" format="2">
  <advance width="354"/>
  <outline>
    <contour>
      <point x="24" y="800" type="line"/>
      <point x="24" y="639" type="line"/>
      <point x="125" y="639" type="line"/>
      <point x="125" y="745" type="line"/>
      <point x="85" y="710" type="line"/>
      <point x="295" y="710" type="line"/>
      <point x="259" y="754" type="line"/>
      <point x="161" y="643"/>
      <point x="87" y="542"/>
      <point x="81" y="408" type="curve"/>
      <point x="199" y="408" type="line"/>
      <point x="209" y="539"/>
      <point x="264" y="629"/>
      <point x="350" y="734" type="curve"/>
      <point x="350" y="800" type="line"/>
    </contour>
  </outline>
</glyph>
<glyph name="six.den" format="2">
  <advance width="365"/>
  <outline>
    <contour>
      <point x="186" y="-6" type="curve" smooth="yes"/>
      <point x="291" y="-6"/>
      <point x="341" y="59"/>
      <point x="341" y="131" type="curve" smooth="yes"/>
      <point x="341" y="211"/>
      <point x="294" y="261"/>
      <point x="220" y="261" type="curve" smooth="yes"/>
      <point x="159" y="261"/>
      <point x="117" y="227"/>
      <point x="106" y="171" type="curve"/>
      <point x="136" y="171" type="line"/>
      <point x="136" y="205" type="line" smooth="yes"/>
      <point x="136" y="279"/>
      <point x="166" y="310"/>
      <point x="197" y="310" type="curve" smooth="yes"/>
      <point x="214" y="310"/>
      <point x="225" y="301"/>
      <point x="226" y="282" type="curve"/>
      <point x="335" y="270" type="line"/>
      <point x="332" y="348"/>
      <point x="283" y="398"/>
      <point x="200" y="398" type="curve" smooth="yes"/>
      <point x="93" y="398"/>
      <point x="26" y="314"/>
      <point x="26" y="185" type="curve" smooth="yes"/>
      <point x="26" y="130"/>
      <point x="36" y="86"/>
      <point x="56" y="58" type="curve" smooth="yes"/>
      <point x="84" y="18"/>
      <point x="123" y="-6"/>
    </contour>
    <contour>
      <point x="186" y="75" type="curve" smooth="yes"/>
      <point x="159" y="75"/>
      <point x="141" y="97"/>
      <point x="141" y="130" type="curve" smooth="yes"/>
      <point x="141" y="163"/>
      <point x="159" y="185"/>
      <point x="186" y="185" type="curve" smooth="yes"/>
      <point x="214" y="185"/>
      <point x="231" y="163"/>
      <point x="231" y="130" type="curve" smooth="yes"/>
      <point x="231" y="97"/>
      <point x="214" y="75"/>
    </contour>
  </outline>
</glyph>
<glyph name="six.sup" format="2">
  <advance width="365"/>
  <outline>
    <contour>
      <point x="186" y="402" type="curve" smooth="yes"/>
      <point x="291" y="402"/>
      <point x="341" y="467"/>
      <point x="341" y="539" type="curve" smooth="yes"/>
      <point x="341" y="619"/>
      <point x="294" y="669"/>
      <point x="220" y="669" type="curve" smooth="yes"/>
      <point x="159" y="669"/>
      <point x="117" y="635"/>
      <point x="106" y="579" type="curve"/>
      <point x="136" y="579" type="line"/>
      <point x="136" y="613" type="line" smooth="yes"/>
      <point x="136" y="687"/>
      <point x="166" y="718"/>
      <point x="197" y="718" type="curve" smooth="yes"/>
      <point x="214" y="718"/>
      <point x="225" y="709"/>
      <point x="226" y="690" type="curve"/>
      <point x="335" y="678" type="line"/>
      <point x="332" y="756"/>
      <point x="283" y="806"/>
      <point x="200" y="806" type="curve" smooth="yes"/>
      <point x="93" y="806"/>
      <point x="26" y="722"/>
      <point x="26" y="593" type="curve" smooth="yes"/>
      <point x="26" y="538"/>
      <point x="36" y="494"/>
      <point x="56" y="466" type="curve" smooth="yes"/>
      <point x="84" y="426"/>
      <point x="123" y="402"/>
    </contour>
    <contour>
      <point x="186" y="483" type="curve" smooth="yes"/>
      <point x="159" y="483"/>
      <point x="141" y="505"/>
      <point x="141" y="538" type="curve" smooth="yes"/>
      <point x="141" y="571"/>
      <point x="159" y="593"/>
      <point x="186" y="593" type="curve" smooth="yes"/>
      <point x="214" y="593"/>
      <point x="231" y="571"/>
      <point x="231" y="538" type="curve" smooth="yes"/>
      <point x="231" y="505"/>
      <point x="214" y="483"/>
    </contour>
  </outline>
</glyph>
<glyph name="three.num" format="2">
  <advance width="358"/>
  <outline>
    <contour>
      <point x="18" y="446" type="line"/>
      <point x="12" y="350"/>
      <point x="84" y="302"/>
      <point x="180" y="302" type="curve" smooth="yes"/>
      <point x="283" y="302"/>
      <point x="337" y="354"/>
      <point x="337" y="424" type="curve" smooth="yes"/>
      <point x="337" y="476"/>
      <point x="304" y="506"/>
      <point x="254" y="515" type="curve"/>
      <point x="254" y="510" type="line"/>
      <point x="289" y="519"/>
      <point x="327" y="541"/>
      <point x="327" y="593" type="curve" smooth="yes"/>
      <point x="327" y="651"/>
      <point x="285" y="706"/>
      <point x="178.16429463984355" y="706" type="curve" smooth="yes"/>
      <point x="83" y="706"/>
      <point x="15" y="655"/>
      <point x="22" y="564" type="curve"/>
      <point x="133" y="571" type="line"/>
      <point x="129" y="600"/>
      <point x="144" y="621"/>
      <point x="175" y="621" type="curve" smooth="yes"/>
      <point x="196" y="621"/>
      <point x="216" y="609"/>
      <point x="216" y="585" type="curve" smooth="yes"/>
      <point x="216" y="562"/>
      <point x="199" y="549"/>
      <point x="179" y="549" type="curve" smooth="yes"/>
      <point x="145" y="549" type="line"/>
      <point x="145" y="471" type="line"/>
      <point x="179" y="471" type="line" smooth="yes"/>
      <point x="208" y="471"/>
      <point x="226" y="458"/>
      <point x="226" y="431" type="curve" smooth="yes"/>
      <point x="226" y="403"/>
      <point x="209" y="387"/>
      <point x="179" y="387" type="curve" smooth="yes"/>
      <point x="144" y="387"/>
      <point x="124" y="408"/>
      <point x="129" y="439" type="curve"/>
    </contour>
  </outline>
</glyph>
<glyph name="three.sub" format="2">
  <advance width="358"/>
  <outline>
    <contour>
      <point x="18" y="36" type="line"/>
      <point x="12" y="-60"/>
      <point x="84" y="-108"/>
      <point x="180" y="-108" type="curve" smooth="yes"/>
      <point x="283" y="-108"/>
      <point x="337" y="-56"/>
      <point x="337" y="14" type="curve" smooth="yes"/>
      <point x="337" y="66"/>
      <point x="304" y="96"/>
      <point x="254" y="105" type="curve"/>
      <point x="254" y="100" type="line"/>
      <point x="289" y="109"/>
      <point x="327" y="131"/>
      <point x="327" y="183" type="curve" smooth="yes"/>
      <point x="327" y="241"/>
      <point x="285" y="296"/>
      <point x="178.16429463984355" y="296.0" type="curve" smooth="yes"/>
      <point x="83" y="296"/>
      <point x="15" y="245"/>
      <point x="22" y="154" type="curve"/>
      <point x="133" y="161" type="line"/>
      <point x="129" y="190"/>
      <point x="144" y="211"/>
      <point x="175" y="211" type="curve" smooth="yes"/>
      <point x="196" y="211"/>
      <point x="216" y="199"/>
      <point x="216" y="175" type="curve" smooth="yes"/>
      <point x="216" y="152"/>
      <point x="199" y="139"/>
      <point x="179" y="139" type="curve" smooth="yes"/>
      <point x="145" y="139" type="line"/>
      <point x="145" y="61" type="line"/>
      <point x="179" y="61" type="line" smooth="yes"/>
      <point x="208" y="61"/>
      <point x="226" y="48"/>
      <point x="226" y="21" type="curve" smooth="yes"/>
      <point x="226" y="-7"/>
      <point x="209" y="-23"/>
      <point x="179" y="-23" type="curve" smooth="yes"/>
      <point x="144" y="-23"/>
      <point x="124" y="-2"/>
      <point x="129" y="29" type="curve"/>
    </contour>
  </outline>
</glyph>
<glyph name="two.sub" format="2">
  <advance width="343"/>
  <outline>
    <contour>
      <point x="322" y="-102" type="line"/>
      <point x="322" y="-11" type="line"/>
      <point x="83" y="-11" type="line"/>
      <point x="83" y="-77" type="line"/>
      <point x="222" y="22"/>
      <point x="319" y="78"/>
      <point x="319" y="168" type="curve" smooth="yes"/>
      <point x="319" y="227"/>
      <point x="282" y="296"/>
      <point x="169" y="296" type="curve" smooth="yes"/>
      <point x="62" y="296"/>
      <point x="16" y="233"/>
      <point x="16" y="173" type="curve" smooth="yes"/>
      <point x="16" y="155"/>
      <point x="20" y="138"/>
      <point x="31" y="119" type="curve"/>
      <point x="134" y="132" type="line"/>
      <point x="127" y="145"/>
      <point x="124" y="157"/>
      <point x="124" y="167" type="curve" smooth="yes"/>
      <point x="124" y="191"/>
      <point x="141" y="209"/>
      <point x="167" y="209" type="curve" smooth="yes"/>
      <point x="192" y="209"/>
      <point x="208" y="192"/>
      <point x="208" y="167" type="curve" smooth="yes"/>
      <point x="208" y="124"/>
      <point x="160" y="93"/>
      <point x="19" y="-14" type="curve"/>
      <point x="19" y="-102" type="line"/>
    </contour>
  </outline>
</glyph>
<glyph name="two.sup" format="2">
  <advance width="343"/>
  <outline>
    <contour>
      <point x="322" y="408" type="line"/>
      <point x="322" y="499" type="line"/>
      <point x="83" y="499" type="line"/>
      <point x="83" y="433" type="line"/>
      <point x="222" y="532"/>
      <point x="319" y="588"/>
      <point x="319" y="678" type="curve" smooth="yes"/>
      <point x="319" y="737"/>
      <point x="282" y="806"/>
      <point x="169" y="806" type="curve" smooth="yes"/>
      <point x="62" y="806"/>
      <point x="16" y="743"/>
      <point x="16" y="683" type="curve" smooth="yes"/>
      <point x="16" y="665"/>
      <point x="20" y="648"/>
      <point x="31" y="629" type="curve"/>
      <point x="134" y="642" type="line"/>
      <point x="127" y="655"/>
      <point x="124" y="667"/>
      <point x="124" y="677" type="curve" smooth="yes"/>
      <point x="124" y="701"/>
      <point x="141" y="719"/>
      <point x="167" y="719" type="curve" smooth="yes"/>
      <point x="192" y="719"/>
      <point x="208" y="702"/>
      <point x="208" y="677" type="curve" smooth="yes"/>
      <point x="208" y="634"/>
      <point x="160" y="603"/>
      <point x="19" y="496" type="curve"/>
      <point x="19" y="408" type="line"/>
    </contour>
  </outline>
</glyph>
<glyph name="zero.den" format="2">
  <advance width="378"/>
  <outline>
    <contour>
      <point x="189" y="398" type="curve" smooth="yes"/>
      <point x="88" y="398"/>
      <point x="24" y="320"/>
      <point x="24" y="196" type="curve" smooth="yes"/>
      <point x="24" y="72"/>
      <point x="88" y="-6"/>
      <point x="189" y="-6" type="curve" smooth="yes"/>
      <point x="290" y="-6"/>
      <point x="354" y="72"/>
      <point x="354" y="196" type="curve" smooth="yes"/>
      <point x="354" y="320"/>
      <point x="290" y="398"/>
    </contour>
    <contour>
      <point x="189" y="86" type="curve" smooth="yes"/>
      <point x="155" y="86"/>
      <point x="135" y="121"/>
      <point x="135" y="196" type="curve" smooth="yes"/>
      <point x="135" y="271"/>
      <point x="155" y="306"/>
      <point x="189" y="306" type="curve" smooth="yes"/>
      <point x="223" y="306"/>
      <point x="243" y="271"/>
      <point x="243" y="196" type="curve" smooth="yes"/>
      <point x="243" y="121"/>
      <point x="223" y="86"/>
    </contour>
  </outline>
</glyph>
<glyph name="zero.sup" format="2">
  <advance width="378"/>
  <outline>
    <contour>
      <point x="189" y="806" type="curve" smooth="yes"/>
      <point x="88" y="806"/>
      <point x="24" y="728"/>
      <point x="24" y="604" type="curve" smooth="yes"/>
      <point x="24" y="480"/>
      <point x="88" y="402"/>
      <point x="189" y="402" type="curve" smooth="yes"/>
      <point x="290" y="402"/>
      <point x="354" y="480"/>
      <point x="354" y="604" type="curve" smooth="yes"/>
      <point x="354" y="728"/>
      <point x="290" y="806"/>
    </contour>
    <contour>
      <point x="189" y="494" type="curve" smooth="yes"/>
      <point x="155" y="494"/>
      <point x="135" y="529"/>
      <point x="135" y="604" type="curve" smooth="yes"/>
      <point x="135" y="679"/>
      <point x="155" y="714"/>
      <point x="189" y="714" type="curve" smooth="yes"/>
      <point x="223" y="714"/>
      <point x="243" y="679"/>
      <point x="243" y="604" type="curve" smooth="yes"/>
      <point x="243" y="529"/>
      <point x="223" y="494"/>
    </contour>
  </outline>
</glyph>
